<?xml version="1.0" standalone="no"?>
<!DOCTYPE svg PUBLIC "-//W3C//DTD SVG 1.1//EN" "http://www.w3.org/Graphics/SVG/1.1/DTD/svg11.dtd" >
<svg xmlns="http://www.w3.org/2000/svg">
<metadata></metadata>
<defs>
<font id="wire_oneregular" horiz-adv-x="598" >
<font-face units-per-em="2048" ascent="1638" descent="-410" />
<missing-glyph horiz-adv-x="340" />
<glyph horiz-adv-x="2048" />
<glyph horiz-adv-x="2048" />
<glyph unicode="&#xd;" horiz-adv-x="2048" />
<glyph unicode=" "  horiz-adv-x="340" />
<glyph unicode="&#x09;" horiz-adv-x="340" />
<glyph unicode="&#xa0;" horiz-adv-x="340" />
<glyph unicode="!" horiz-adv-x="258" d="M86 25q0 20 11.5 33.5t33.5 13.5q23 0 35 -13.5t12 -33.5q0 -19 -12 -32t-35 -13q-22 0 -33.5 13t-11.5 32zM104 293q0 10 7 16v1100q-7 8 -7 18q0 11 8 19t19 8t19 -8t8 -19q0 -9 -6 -18v-1100q6 -6 6 -16q0 -11 -8 -19t-19 -8t-19 8t-8 19z" />
<glyph unicode="&#x22;" horiz-adv-x="412" d="M12 1257q0 20 19 27l55 98q-6 9 -6 25q0 20 11.5 33.5t33.5 13.5q23 0 35 -13.5t12 -33.5q0 -19 -12 -32t-35 -13h-4l-56 -101v-4q0 -11 -7.5 -19t-18.5 -8t-19 8t-8 19zM199 1257q0 20 19 27l55 98q-6 9 -6 25q0 20 11.5 33.5t33.5 13.5q23 0 35 -13.5t12 -33.5 q0 -19 -12 -32t-35 -13h-4l-56 -101v-4q0 -11 -7.5 -19t-18.5 -8t-19 8t-8 19z" />
<glyph unicode="#" horiz-adv-x="807" d="M53 544q0 11 8 19t19 8q10 0 16 -7h123l65 247h-90q-6 -6 -16 -6q-11 0 -19 8t-8 19t8 19t19 8q10 0 16 -7h101l148 563q-2 4 -2 12q0 11 7.5 19t18.5 8t19 -8t8 -19q0 -8 -4 -14.5t-12 -9.5l-145 -551h211l148 563q-2 4 -2 12q0 11 7.5 19t18.5 8t19 -8t8 -19 q0 -8 -4 -14.5t-12 -9.5l-145 -551h110q8 7 18 7q11 0 19 -8t8 -19t-8 -19t-19 -8q-9 0 -18 6h-120l-65 -247h87q8 7 18 7q11 0 19 -8t8 -19t-8 -19t-19 -8q-9 0 -18 6h-98l-132 -505q4 -8 4 -12q0 -11 -7.5 -18.5t-18.5 -7.5t-19 7.5t-8 18.5q0 14 12 23l130 494h-210 l-132 -505q4 -8 4 -12q0 -11 -7.5 -18.5t-18.5 -7.5t-19 7.5t-8 18.5q0 14 12 23l130 494h-112q-6 -6 -16 -6q-11 0 -19 8t-8 19zM258 564h210l65 247h-210z" />
<glyph unicode="$" horiz-adv-x="580" d="M70 1044v177q0 43 11 85t36 75t66 53q34 16 82 19v106q-6 9 -6 18q0 11 8 19t19 8t18.5 -8t7.5 -19q0 -9 -6 -18v-106q43 -3 75 -17q40 -18 65 -48t37.5 -68.5t14.5 -80.5q3 -3 4.5 -8t1.5 -10q0 -11 -7.5 -19t-18.5 -8t-19 8t-8 19q0 10 6 16q-2 33 -11.5 64.5t-30 56.5 t-52.5 40t-78 15q-49 0 -82.5 -17t-53.5 -44t-29 -61.5t-9 -69.5v-177q2 -51 15.5 -90.5t48.5 -70.5l241 -213q54 -50 72 -103t18 -104v-256q0 -44 -11 -85t-36 -72.5t-66 -50.5q-36 -16 -87 -19v-107q6 -9 6 -18q0 -11 -7.5 -19t-18.5 -8t-19 8t-8 19q0 9 6 18v108 q-40 3 -70 16q-39 17 -64.5 45.5t-37.5 66.5t-15 79q-3 4 -4.5 9t-1.5 10q0 11 8 18.5t19 7.5t18.5 -7.5t7.5 -18.5q0 -5 -1.5 -10t-4.5 -9q1 -34 11 -64.5t30.5 -53.5t52.5 -36.5t78 -13.5q49 0 82.5 15.5t53.5 42t29 60t9 69.5v256q0 52 -20.5 99.5t-58.5 82.5l-240 213 q-25 22 -40 45.5t-23 46.5t-10.5 46.5t-2.5 47.5z" />
<glyph unicode="%" horiz-adv-x="872" d="M67 969v342q0 26 6.5 51.5t22 46t40.5 33t62 12.5t62 -12.5t41 -33t23 -46t7 -51.5v-342q0 -26 -7 -52t-23 -46.5t-41 -33t-62 -12.5t-62 12.5t-40.5 33t-22 46.5t-6.5 52zM108 969q0 -18 4 -36.5t14.5 -33.5t28 -24t43.5 -9t43.5 9t28.5 24t15.5 33.5t4.5 36.5v342 q0 18 -4.5 36.5t-15.5 33t-28.5 23.5t-43.5 9t-43.5 -9t-28 -23.5t-14.5 -33t-4 -36.5v-342zM225 6q0 14 12 23l365 1386q-2 4 -2 12q0 11 7.5 19t18.5 8t19 -8t8 -19q0 -8 -4 -14.5t-12 -9.5l-363 -1385q4 -8 4 -12q0 -11 -7.5 -18.5t-18.5 -7.5t-19 7.5t-8 18.5zM541 125 v342q0 26 6.5 51.5t22 46t40.5 33t62 12.5t62 -12.5t41 -33t23 -46t7 -51.5v-342q0 -26 -7 -52t-23 -46.5t-41 -33t-62 -12.5t-62 12.5t-40.5 33t-22 46.5t-6.5 52zM582 125q0 -18 4 -36.5t14.5 -33.5t28 -24t43.5 -9t43.5 9t28.5 24t15.5 33.5t4.5 36.5v342q0 18 -4.5 36.5 t-15.5 33t-28.5 23.5t-43.5 9t-43.5 -9t-28 -23.5t-14.5 -33t-4 -36.5v-342z" />
<glyph unicode="&#x26;" horiz-adv-x="631" d="M86 207v584q0 30 6 61.5t19.5 60t35.5 52.5t54 39q-32 14 -54 38t-35.5 53.5t-19.5 64t-6 69.5q0 42 10.5 82.5t35 72t65.5 51t102 19.5q58 0 97.5 -17t64.5 -45.5t37 -66.5t14 -80q3 -3 5.5 -8t2.5 -10q0 -11 -7.5 -19t-18.5 -8t-19 8t-8 19q0 3 0.5 6.5t3.5 7.5 q-2 32 -11.5 63t-30 55t-52.5 39t-78 15q-48 0 -81 -16t-53.5 -42t-29 -59t-8.5 -67q0 -38 8.5 -74.5t29 -65.5t53.5 -47q31 -17 77 -18h48v-41h-49q-46 -1 -77 -19q-33 -18 -53 -46t-28.5 -62t-8.5 -65v-584q0 -36 8.5 -69.5t28.5 -60t53 -42t82 -15.5t82 15.5t53 42 t28.5 60t8.5 69.5v194h-129q-6 -6 -16 -6q-11 0 -19 8t-8 19t8 19t19 8q9 0 16 -7h227q10 7 19 7q11 0 18.5 -8t7.5 -19t-7.5 -19t-18.5 -8q-10 0 -19 6h-57v-194q0 -44 -11 -85t-36 -72.5t-66 -50.5t-100 -19q-61 0 -102 19t-65.5 50.5t-35 72.5t-10.5 85z" />
<glyph unicode="'" horiz-adv-x="219" d="M66 1407q0 20 11.5 33.5t33.5 13.5q23 0 35 -13.5t12 -33.5q0 -14 -7.5 -25.5t-19.5 -17.5v-162q6 -6 6 -16q0 -11 -7.5 -19t-18.5 -8t-19 8t-8 19q0 10 6 16v164q-12 5 -18 16t-6 25z" />
<glyph unicode="(" horiz-adv-x="354" d="M94 63v1301q0 42 9.5 82.5t32.5 72.5t60 52.5t93 23.5q3 3 7.5 6t10.5 3q11 0 19 -8t8 -19t-8 -19t-19 -8q-8 0 -16 4q-45 -3 -75 -20.5t-48 -44t-25.5 -59t-7.5 -66.5v-1301q0 -35 7.5 -67.5t26 -58t49 -42t75.5 -18.5q3 2 6 3t8 1q11 0 19 -7.5t8 -18.5t-8 -19t-19 -8 q-13 0 -20 10q-55 3 -92 23t-59.5 51t-32 70.5t-9.5 80.5z" />
<glyph unicode=")" horiz-adv-x="354" d="M20 -145q0 11 8 18.5t19 7.5q5 0 8 -1t6 -3q45 2 75.5 18.5t49 42t26 58t7.5 67.5v1301q0 34 -7.5 66.5t-25.5 59t-48 44t-75 20.5q-8 -4 -16 -4q-11 0 -19 8t-8 19t8 19t19 8q6 0 10.5 -3t7.5 -6q56 -3 93 -23.5t60 -52.5t32.5 -72.5t9.5 -82.5v-1301q0 -41 -9.5 -80.5 t-32 -70.5t-59.5 -51t-92 -23q-7 -10 -20 -10q-11 0 -19 8t-8 19z" />
<glyph unicode="*" horiz-adv-x="670" d="M59 1260q0 11 8 18.5t19 7.5q6 0 12 -3.5t11 -8.5l204 -68v215q-6 9 -6 19q0 11 8 18.5t19 7.5t18.5 -7.5t7.5 -18.5q0 -10 -6 -19v-215l205 66q10 14 25 14q11 0 18.5 -7.5t7.5 -18.5t-7.5 -19t-18.5 -8h-9l-206 -68l123 -172q9 -2 15.5 -9.5t6.5 -16.5q0 -11 -8 -19 t-19 -8t-18.5 8t-7.5 19l-129 174l-125 -170v-4q0 -11 -8 -19t-19 -8t-18.5 8t-7.5 19q0 9 5 15.5t13 8.5l127 174l-203 70q-3 -2 -5.5 -2h-4.5q-11 0 -19 8t-8 19z" />
<glyph unicode="+" horiz-adv-x="694" d="M53 551q0 11 8 19t19 8q10 0 16 -7h232v228q-6 9 -6 18q0 11 7.5 19t18.5 8t19 -8t8 -19q0 -9 -6 -18v-228h225q8 7 18 7q11 0 19 -8t8 -19t-8 -19t-19 -8q-9 0 -18 6h-225v-229q6 -6 6 -16q0 -11 -8 -19t-19 -8t-18.5 8t-7.5 19q0 10 6 16v229h-232q-6 -6 -16 -6 q-11 0 -19 8t-8 19z" />
<glyph unicode="," horiz-adv-x="223" d="M12 -125q0 20 19 27l55 98q-6 9 -6 25q0 20 11.5 33.5t33.5 13.5q23 0 35 -13.5t12 -33.5q0 -19 -12 -32t-35 -13h-4l-56 -101v-4q0 -11 -7.5 -19t-18.5 -8t-19 8t-8 19z" />
<glyph unicode="-" horiz-adv-x="618" d="M51 596q0 11 8 19t19 8q10 0 16 -7h426q8 7 19 7t18.5 -8t7.5 -19t-7.5 -19t-18.5 -8q-10 0 -19 6h-426q-6 -6 -16 -6q-11 0 -19 8t-8 19z" />
<glyph unicode="." horiz-adv-x="195" d="M51 25q0 20 11.5 33.5t33.5 13.5q23 0 35 -13.5t12 -33.5q0 -19 -12 -32t-35 -13q-22 0 -33.5 13t-11.5 32z" />
<glyph unicode="/" horiz-adv-x="575" d="M47 -195q0 18 14 25l414 1585q-2 4 -2 12q0 11 8 19t19 8t18.5 -8t7.5 -19q0 -8 -4 -14.5t-12 -9.5l-414 -1585q4 -8 4 -13q0 -11 -7.5 -18.5t-18.5 -7.5t-19 7.5t-8 18.5z" />
<glyph unicode="0" horiz-adv-x="610" d="M92 207v1014q0 43 10.5 85t35 75t65.5 53t102 20q59 0 100 -20t66 -53t36 -75t11 -85v-1014q0 -44 -11 -85t-36 -72.5t-66 -50.5t-100 -19q-61 0 -102 19t-65.5 50.5t-35 72.5t-10.5 85zM133 207q0 -36 8.5 -69.5t28.5 -60t53 -42t82 -15.5t82 15.5t53 42t28.5 60 t8.5 69.5v1014q0 35 -8.5 69.5t-28.5 61.5t-53 44t-82 17t-82 -17t-53 -44t-28.5 -61.5t-8.5 -69.5v-1014z" />
<glyph unicode="1" horiz-adv-x="522" d="M-2 1051q0 9 7 16.5t18 9.5l354 353q0 9 7.5 16.5t18.5 7.5t19 -8t8 -19q0 -9 -6 -18v-1386q6 -8 6 -17q0 -11 -8 -18.5t-19 -7.5t-18.5 7.5t-7.5 18.5q0 9 6 17v1357l-332 -329q0 -11 -7.5 -19t-18.5 -8t-19 8t-8 19z" />
<glyph unicode="2" horiz-adv-x="567" d="M68 0v395q0 24 2.5 48t10 47t22 46t38.5 46l240 213q38 35 58 82t20 100v250q0 36 -8.5 69.5t-28.5 59.5t-53 41.5t-82 15.5q-46 0 -78 -13.5t-52.5 -36.5t-30.5 -53.5t-11 -64.5q3 -3 4.5 -8t1.5 -10q0 -11 -8 -19t-19 -8t-18.5 8t-7.5 19q0 5 1.5 10t4.5 8 q2 42 14.5 79.5t37.5 66.5t64.5 46t96.5 17q61 0 101.5 -19t65.5 -51t35.5 -73t10.5 -84v-250q0 -51 -17.5 -104.5t-70.5 -102.5l-242 -213q-35 -31 -47 -71t-14 -91v-354h360q9 6 18 6q11 0 19 -8t8 -19t-8 -18.5t-19 -7.5q-9 0 -18 6h-401z" />
<glyph unicode="3" horiz-adv-x="561" d="M43 207q0 11 8 18.5t19 7.5t18.5 -7.5t7.5 -18.5q0 -5 -1.5 -10t-4.5 -9q1 -34 11 -64.5t30.5 -53.5t52.5 -36.5t78 -13.5q49 0 82 15.5t53 42t28.5 60t8.5 69.5v584q0 36 -8.5 70.5t-29 61.5t-55 43.5t-85.5 16.5h-37v41h55q49 0 80.5 17t49 45t24 63.5t6.5 71.5 q0 35 -8.5 69.5t-28.5 61.5t-53 44t-82 17q-46 0 -78 -13.5t-52.5 -36.5t-30.5 -53.5t-11 -64.5q3 -3 4.5 -8t1.5 -10q0 -11 -8.5 -19t-17.5 -8q-11 0 -19 8t-8 19q0 5 1.5 10t4.5 8q2 42 14.5 79.5t37.5 66.5t64.5 46t96.5 17q59 0 100 -20t66 -53t36 -75t11 -85 q0 -33 -5.5 -66.5t-19 -62.5t-36.5 -52t-58 -36q33 -15 55.5 -37t37 -49.5t20.5 -60t6 -66.5v-584q0 -44 -10.5 -85t-35.5 -72.5t-65.5 -50.5t-101.5 -19q-57 0 -96.5 17t-64.5 45.5t-37.5 66.5t-14.5 79q-3 4 -4.5 9t-1.5 10z" />
<glyph unicode="4" horiz-adv-x="522" d="M2 983v41l346 403q0 11 8 19t19 8t18.5 -8t7.5 -19q0 -9 -6 -18v-385h58q9 6 18 6q11 0 19 -7.5t8 -18.5t-8 -19t-19 -8q-9 0 -18 6h-58v-960q6 -8 6 -17q0 -11 -7.5 -18.5t-18.5 -7.5t-19 7.5t-8 18.5q0 9 6 17v960h-352zM51 1024h303v350z" />
<glyph unicode="5" horiz-adv-x="555" d="M39 201q0 11 8 18.5t19 7.5t18.5 -7.5t7.5 -18.5t-6 -17q2 -33 12.5 -63t30.5 -52.5t52 -35.5t77 -13q49 0 82 15.5t53 42t28.5 60t8.5 69.5v590q0 36 -8.5 69.5t-28.5 59.5t-53 41.5t-82 15.5h-172v451h350q9 6 19 6q11 0 18.5 -8t7.5 -19t-7.5 -19t-18.5 -8q-9 0 -19 7 h-309v-369h131q59 0 100 -19t66 -51t36 -73t11 -84v-590q0 -44 -11 -85t-36 -72.5t-66 -50.5t-100 -19q-57 0 -96.5 16.5t-64 44t-37 64t-15.5 77.5q-6 6 -6 19z" />
<glyph unicode="6" horiz-adv-x="602" d="M92 207v547v22v445q0 43 10.5 85t35 75t65.5 53t102 20q57 0 96.5 -18t64.5 -48t37.5 -68.5t14.5 -80.5q3 -3 4.5 -8t1.5 -10q0 -11 -7.5 -19t-18.5 -8t-19 8t-8 19q0 10 6 16q-2 33 -11.5 64.5t-30 56.5t-52.5 40t-78 15q-49 0 -82 -17t-53 -44t-28.5 -61.5t-8.5 -69.5 v-291q25 43 67.5 68.5t104.5 25.5q59 0 100 -20t66 -53t36 -75t11 -85v-584q0 -44 -11 -85t-36 -72.5t-66 -50.5t-100 -19q-61 0 -102 19t-65.5 50.5t-35 72.5t-10.5 85zM133 209q0 -36 8.5 -70t28.5 -60.5t53 -42.5t82 -16t82 16t53 42.5t28.5 60.5t8.5 70v579 q0 36 -8.5 70.5t-28.5 62.5t-53 45t-82 17t-82 -17t-53 -45t-28.5 -62.5t-8.5 -70.5v-579z" />
<glyph unicode="7" horiz-adv-x="502" d="M31 1413q0 11 7.5 19t18.5 8t17 -6h403v-205q0 -24 -2.5 -48t-10 -47t-22 -46.5t-39.5 -45.5l-167 -149q-39 -35 -58.5 -82.5t-19.5 -99.5v-688q6 -8 6 -17q0 -11 -8 -18.5t-19 -7.5t-18.5 7.5t-7.5 18.5q0 9 6 17v688q0 51 17 104t71 103l170 149q35 31 47 71t14 91v164 h-362q-7 -7 -17 -7q-11 0 -18.5 8t-7.5 19z" />
<glyph unicode="8" horiz-adv-x="600" d="M86 207v604q0 32 6 64t19 60t34 51t52 38q-31 13 -52 34.5t-34 48.5t-19 58.5t-6 63.5q0 42 10.5 82.5t35 72t65.5 51t102 19.5t101.5 -18.5t65.5 -49.5t35.5 -71.5t10.5 -85.5q0 -32 -6 -63.5t-19 -58.5t-35 -48.5t-53 -34.5q30 -15 51.5 -38t35 -51t20 -60t6.5 -64 v-604q0 -44 -11 -85t-36 -72.5t-66 -50.5t-100 -19q-61 0 -102 19t-65.5 50.5t-35 72.5t-10.5 85zM127 207q0 -36 8.5 -69.5t28.5 -60t53 -42t82 -15.5t82 15.5t53 42t28.5 60t8.5 69.5v604q0 35 -8.5 69.5t-28.5 62t-53 44.5t-82 17t-82 -17t-53 -44.5t-28.5 -62 t-8.5 -69.5v-604zM127 1229q0 -33 8.5 -65.5t27.5 -58.5t50 -42.5t76 -18.5h10h8q46 2 77.5 18t50.5 41.5t27.5 58t8.5 67.5q0 34 -8.5 67t-29 59t-53.5 42t-81 16t-81 -16t-53.5 -42t-29 -59t-8.5 -67z" />
<glyph unicode="9" horiz-adv-x="602" d="M78 213q0 11 7.5 19t18.5 8t19 -8t8 -19q0 -10 -6 -16q1 -33 11 -65t30.5 -56.5t52.5 -40t78 -15.5q49 0 82 17t53 44.5t28.5 62t8.5 69.5v289q-26 -44 -69 -68t-103 -24q-59 0 -100 20t-66 52.5t-36 74.5t-11 86v584q0 43 11 84t36 73t66 51t100 19q61 0 101.5 -19 t65.5 -51t35.5 -73t10.5 -84v-547v-23v-444q0 -44 -10.5 -86t-35.5 -74.5t-65.5 -52.5t-101.5 -20q-57 0 -96.5 18t-64.5 48t-37.5 68.5t-14.5 80.5q-3 3 -4.5 8t-1.5 10zM125 645q0 -35 8.5 -70t28.5 -62.5t53 -44.5t82 -17q47 0 79 15.5t52.5 41t29.5 57.5t11 66v594 q0 36 -8.5 70t-28.5 60t-53 42t-82 16t-82 -16t-53 -42t-28.5 -60t-8.5 -70v-580z" />
<glyph unicode=":" horiz-adv-x="195" d="M51 25q0 20 11.5 33.5t33.5 13.5q23 0 35 -13.5t12 -33.5q0 -19 -12 -32t-35 -13q-22 0 -33.5 13t-11.5 32zM51 813q0 20 11.5 33.5t33.5 13.5q23 0 35 -13.5t12 -33.5q0 -19 -12 -32t-35 -13q-22 0 -33.5 13t-11.5 32z" />
<glyph unicode=";" horiz-adv-x="223" d="M12 -125q0 20 19 27l57 96q-8 8 -8 27q0 20 11.5 33.5t33.5 13.5q23 0 35 -13.5t12 -33.5q0 -19 -12 -32t-35 -13h-2l-58 -105q0 -11 -7.5 -19t-18.5 -8t-19 8t-8 19zM80 813q0 20 11.5 33.5t33.5 13.5q23 0 35 -13.5t12 -33.5q0 -19 -12 -32t-35 -13q-22 0 -33.5 13 t-11.5 32z" />
<glyph unicode="&#x3c;" horiz-adv-x="764" d="M49 752q0 11 8 18.5t19 7.5q4 0 6 -2l555 301q6 21 27 21q11 0 18.5 -8t7.5 -19t-7.5 -19t-18.5 -8h-9l-542 -292l542 -295q2 2 9 2q11 0 18.5 -8t7.5 -19t-7.5 -18.5t-18.5 -7.5q-10 0 -17 5t-10 13l-555 301h-6q-11 0 -19 8t-8 19z" />
<glyph unicode="=" horiz-adv-x="764" d="M88 651q0 11 8 19t19 8q10 0 16 -7h498q8 7 18 7q11 0 19 -8t8 -19t-8 -19t-19 -8q-9 0 -18 6h-498q-6 -6 -16 -6q-11 0 -19 8t-8 19zM88 836q0 11 8 19t19 8q10 0 16 -7h498q8 7 18 7q11 0 19 -8t8 -19t-8 -19t-19 -8q-9 0 -18 6h-498q-6 -6 -16 -6q-11 0 -19 8t-8 19z " />
<glyph unicode="&#x3e;" horiz-adv-x="764" d="M74 432q0 -11 7.5 -18.5t18.5 -7.5q10 0 17 5t10 13l555 301h6q11 0 19 8t8 19t-8 18.5t-19 7.5q-4 0 -6 -2l-555 301q-6 21 -27 21q-11 0 -18.5 -8t-7.5 -19t7.5 -19t18.5 -8h9l542 -292l-542 -295q-2 2 -9 2q-11 0 -18.5 -8t-7.5 -19z" />
<glyph unicode="?" horiz-adv-x="555" d="M51 1221q0 5 1.5 10t4.5 8q2 42 14.5 80.5t37.5 68.5t64.5 48t96.5 18q61 0 101.5 -20t65.5 -53t35.5 -75t10.5 -85v-142q0 -24 -2.5 -47.5t-10 -47t-22 -46.5t-38.5 -45l-41 -37q-39 -35 -58.5 -82.5t-19.5 -99.5v-365q6 -6 6 -16q0 -11 -8 -19t-19 -8t-18.5 8t-7.5 19 q0 10 6 16v365q0 51 17 104t71 103l43 37q35 30 47 70t14 91v142q0 35 -8.5 69.5t-28.5 61.5t-53 44t-82 17q-46 0 -78 -15t-52.5 -40t-30.5 -56.5t-11 -64.5q6 -6 6 -16q0 -11 -7.5 -19t-18.5 -8t-19 8t-8 19zM226 25q0 20 11.5 33.5t33.5 13.5q23 0 35 -13.5t12 -33.5 q0 -19 -12 -32t-35 -13q-22 0 -33.5 13t-11.5 32z" />
<glyph unicode="@" horiz-adv-x="948" d="M82 225v594q0 81 19.5 158t65 137.5t121 97.5t187.5 37q109 0 184 -37t121.5 -97.5t67 -137.5t20.5 -158v-758h-16q-78 0 -124 34t-66 85q-15 -38 -38.5 -61t-49.5 -36t-53 -17.5t-50 -4.5q-61 0 -101.5 20.5t-65 53.5t-34.5 75.5t-10 86.5v430q0 44 10 86.5t34.5 75.5 t65 53.5t101.5 20.5q62 0 102 -24t68 -62v41q-6 9 -6 18q0 11 8 19t19 8t18.5 -8t7.5 -19q0 -9 -6 -18v-615v-6q0 -34 7 -66.5t23.5 -59.5t44.5 -45t70 -22v713q0 71 -17.5 141t-58.5 125.5t-109 90t-169 34.5q-100 0 -167 -34.5t-107.5 -90t-58 -125.5t-17.5 -141v-590 q0 -71 17.5 -140.5t58 -125.5t107.5 -90.5t167 -34.5v-41q-112 0 -187 37t-120.5 97.5t-64.5 137.5t-19 158zM301 297q0 -35 8 -70t27.5 -63t52 -45t82.5 -17q48 0 80.5 16.5t52.5 43.5t28.5 62t8.5 73v430q0 35 -10.5 70t-31.5 62.5t-53 45t-75 17.5q-50 0 -82.5 -17.5 t-52 -45t-27.5 -62.5t-8 -70v-430z" />
<glyph unicode="A" d="M80 6q0 9 6 17v1177q0 44 10 86t35 75t66.5 53t103.5 20h211v-1411q6 -8 6 -17q0 -11 -7.5 -18.5t-18.5 -7.5t-19 7.5t-8 18.5q0 9 6 17v960h-344v-960q6 -8 6 -17q0 -11 -8 -18.5t-19 -7.5t-18.5 7.5t-7.5 18.5zM127 1024h344v369h-170q-51 0 -84.5 -17t-53.5 -44.5 t-28 -62t-8 -69.5v-176z" />
<glyph unicode="B" horiz-adv-x="582" d="M88 0v1434h207q58 0 96.5 -17t61.5 -46t33 -68t10 -82q0 -33 -5 -66t-16.5 -62t-31 -52.5t-48.5 -36.5q33 -15 55.5 -37t37 -49.5t20.5 -60t6 -66.5v-570q0 -105 -54.5 -163t-160.5 -58h-211zM129 41h170q87 0 130.5 48.5t43.5 133.5v568q0 36 -8.5 70.5t-29 61.5 t-55 43.5t-85.5 16.5h-166v-942zM129 1024h166q49 0 80 17t49 45t24.5 63.5t6.5 71.5q0 35 -8 66.5t-26.5 55t-49.5 37t-76 13.5h-166v-369z" />
<glyph unicode="C" horiz-adv-x="539" d="M82 207v1014q0 43 10.5 85t35 75t65.5 53t102 20q57 0 96.5 -18t64.5 -48t37.5 -68.5t14.5 -80.5q3 -3 4.5 -8t1.5 -10q0 -11 -8 -19t-19 -8t-18.5 8t-7.5 19q0 10 6 16q-2 33 -11.5 64.5t-30 56.5t-52.5 40t-78 15q-49 0 -82 -17t-53 -44t-28.5 -61.5t-8.5 -69.5v-1014 q0 -36 8.5 -69.5t28.5 -60t53 -42t82 -15.5q46 0 78 13.5t52.5 36.5t30 53.5t11.5 64.5q-3 4 -4.5 9t-1.5 10q0 11 7.5 18.5t18.5 7.5t19 -7.5t8 -18.5q0 -5 -1.5 -10t-4.5 -9q-2 -41 -14.5 -79t-37.5 -66.5t-64.5 -45.5t-96.5 -17q-61 0 -102 19t-65.5 50.5t-35 72.5 t-10.5 85z" />
<glyph unicode="D" horiz-adv-x="596" d="M88 0v1434h211q62 0 103.5 -20t66 -53t35 -75t10.5 -86v-967q0 -44 -10.5 -85.5t-35 -74.5t-66 -53t-103.5 -20h-211zM129 41h170q51 0 84.5 17t53.5 44t28 61.5t8 69.5v967q0 35 -8 69.5t-28 62t-53.5 44.5t-84.5 17h-170v-1352z" />
<glyph unicode="E" horiz-adv-x="547" d="M86 0v1202q0 44 10 85.5t35 74t66.5 52.5t103.5 20h166q9 6 18 6q11 0 19 -8t8 -19t-8 -19t-19 -8q-8 0 -18 7h-166q-51 0 -84.5 -16.5t-53.5 -43.5t-28 -61.5t-8 -69.5v-178h281q9 6 18 6q11 0 19 -7.5t8 -18.5t-8 -19t-19 -8q-9 0 -18 6h-281v-942h340q9 6 18 6 q11 0 19 -8t8 -19t-8 -18.5t-19 -7.5q-9 0 -18 6h-381z" />
<glyph unicode="F" horiz-adv-x="524" d="M80 6q0 9 6 17v1179q0 44 10 85.5t35 74t66.5 52.5t103.5 20h166q9 6 18 6q11 0 19 -8t8 -19t-8 -19t-19 -8q-8 0 -18 7h-166q-51 0 -84.5 -16.5t-53.5 -43.5t-28 -61.5t-8 -69.5v-178h281q9 6 18 6q11 0 19 -7.5t8 -18.5t-8 -19t-19 -8q-9 0 -18 6h-281v-960q6 -8 6 -17 q0 -11 -8 -18.5t-19 -7.5t-18.5 7.5t-7.5 18.5z" />
<glyph unicode="G" horiz-adv-x="571" d="M82 207v1014q0 43 10.5 85t35 75t65.5 53t102 20q57 0 96.5 -18t64.5 -48t37.5 -68.5t14.5 -80.5q3 -3 4.5 -8t1.5 -10q0 -11 -8 -19t-19 -8t-18.5 8t-7.5 19q0 10 6 16q-2 33 -11.5 64.5t-30 56.5t-52.5 40t-78 15q-49 0 -82 -17t-53 -44t-28.5 -61.5t-8.5 -69.5v-1014 q0 -36 8.5 -69.5t28.5 -60t53 -42t82 -15.5t82 15.5t53 42t28.5 60t8.5 69.5v364h-156q-6 -6 -16 -6q-11 0 -19 8t-8 19t8 18.5t19 7.5q10 0 16 -6h197v-405q0 -44 -11 -85t-36 -72.5t-66 -50.5t-100 -19q-61 0 -102 19t-65.5 50.5t-35 72.5t-10.5 85z" />
<glyph unicode="H" horiz-adv-x="602" d="M82 6q0 9 6 17v1386q-6 9 -6 18q0 11 8 19t19 8t18.5 -8t7.5 -19q0 -9 -6 -18v-385h344v385q-6 9 -6 18q0 11 8 19t19 8t18.5 -8t7.5 -19q0 -9 -6 -18v-1386q6 -8 6 -17q0 -11 -7.5 -18.5t-18.5 -7.5t-19 7.5t-8 18.5q0 9 6 17v960h-344v-960q6 -8 6 -17 q0 -11 -7.5 -18.5t-18.5 -7.5t-19 7.5t-8 18.5z" />
<glyph unicode="I" horiz-adv-x="217" d="M82 6q0 9 6 17v1386q-6 9 -6 18q0 11 8 19t19 8t18.5 -8t7.5 -19q0 -9 -6 -18v-1386q6 -8 6 -17q0 -11 -7.5 -18.5t-18.5 -7.5t-19 7.5t-8 18.5z" />
<glyph unicode="J" horiz-adv-x="522" d="M4 207q0 11 8 18.5t19 7.5t18.5 -7.5t7.5 -18.5q0 -5 -1.5 -10t-4.5 -9q1 -34 11 -64.5t30.5 -53.5t52.5 -36.5t78 -13.5q49 0 82 15.5t53 42t28.5 60t8.5 69.5v1202q-3 3 -4.5 8t-1.5 10q0 11 8.5 19t18.5 8q11 0 18.5 -8t7.5 -19q0 -5 -1.5 -10t-4.5 -8v-1202 q0 -44 -10.5 -85t-35.5 -72.5t-65.5 -50.5t-101.5 -19q-57 0 -96.5 17t-64.5 45.5t-37.5 66.5t-14.5 79q-3 4 -4.5 9t-1.5 10z" />
<glyph unicode="K" horiz-adv-x="586" d="M82 6q0 9 6 17v1386q-6 9 -6 18q0 11 8 19t19 8t18.5 -8t7.5 -19q0 -9 -6 -18v-385l328 401v2q0 11 7.5 19t18.5 8t19 -8t8 -19q0 -9 -6.5 -16.5t-16.5 -9.5l-307 -377h121q59 0 100 -20t66 -52.5t36 -74.5t11 -86v-768q6 -8 6 -17q0 -11 -7.5 -18.5t-18.5 -7.5t-19 7.5 t-8 18.5q0 9 6 17v770q0 35 -8.5 69.5t-28.5 61.5t-53 44t-82 17h-172v-962q6 -8 6 -17q0 -11 -7.5 -18.5t-18.5 -7.5t-19 7.5t-8 18.5z" />
<glyph unicode="L" horiz-adv-x="535" d="M82 1427q0 11 8 19t19 8t18.5 -8t7.5 -19q0 -9 -6 -18v-1368h354q9 6 19 6q11 0 18.5 -8t7.5 -19t-7.5 -18.5t-18.5 -7.5q-10 0 -19 6h-395v1409q-6 9 -6 18z" />
<glyph unicode="M" horiz-adv-x="733" d="M82 6q0 9 6 17v1386q-6 9 -6 18q0 11 8 19t19 8t18.5 -8t7.5 -19q0 -6 -2 -8l234 -395l231 395v8q0 11 8 19t19 8t18.5 -8t7.5 -19q0 -9 -6 -18v-1386q6 -8 6 -17q0 -11 -7.5 -18.5t-18.5 -7.5t-19 7.5t-8 18.5q0 9 6 17v1327l-217 -367h-43l-215 365v-1325q6 -8 6 -17 q0 -11 -7.5 -18.5t-18.5 -7.5t-19 7.5t-8 18.5z" />
<glyph unicode="N" horiz-adv-x="602" d="M82 6q0 9 6 17v1386q-6 9 -6 18q0 11 8 19t19 8t18.5 -8t7.5 -19q0 -9 -6 -18v-342l344 367h41v-1411q6 -8 6 -17q0 -11 -7.5 -18.5t-18.5 -7.5t-19 7.5t-8 18.5q0 9 6 17v1353l-344 -366v-987q6 -8 6 -17q0 -11 -7.5 -18.5t-18.5 -7.5t-19 7.5t-8 18.5z" />
<glyph unicode="O" horiz-adv-x="590" d="M82 207v1014q0 43 10.5 85t35 75t65.5 53t102 20q59 0 100 -20t66 -53t36 -75t11 -85v-1014q0 -44 -11 -85t-36 -72.5t-66 -50.5t-100 -19q-61 0 -102 19t-65.5 50.5t-35 72.5t-10.5 85zM123 207q0 -36 8.5 -69.5t28.5 -60t53 -42t82 -15.5t82 15.5t53 42t28.5 60 t8.5 69.5v1014q0 35 -8.5 69.5t-28.5 61.5t-53 44t-82 17t-82 -17t-53 -44t-28.5 -61.5t-8.5 -69.5v-1014z" />
<glyph unicode="P" horiz-adv-x="573" d="M82 6q0 9 6 17v1411h219q61 0 101.5 -20t65.5 -53t35.5 -75t10.5 -86v-563q0 -44 -10.5 -85t-35.5 -72.5t-65.5 -50.5t-101.5 -19h-178v-387q6 -8 6 -17q0 -11 -7.5 -18.5t-18.5 -7.5t-19 7.5t-8 18.5zM129 451h178q49 0 82 15.5t53 41.5t28.5 59.5t8.5 69.5v563 q0 35 -8.5 69.5t-28.5 62t-53 44.5t-82 17h-178v-942z" />
<glyph unicode="Q" horiz-adv-x="590" d="M82 207v1014q0 43 10.5 85t35 75t65.5 53t102 20q59 0 100 -20t66 -53t36 -75t11 -85v-1014q0 -38 -9 -75t-28 -66l33 -33q11 0 18.5 -8t7.5 -19t-7.5 -18.5t-18.5 -7.5t-18 6.5t-9 15.5l-33 31q-24 -25 -61 -39t-88 -14q-61 0 -102 19t-65.5 50.5t-35 72.5t-10.5 85z M123 207q0 -36 8.5 -69.5t28.5 -60t53 -42t82 -15.5q42 0 71.5 11.5t49.5 29.5l-123 125q-11 0 -18 8t-7 19t8 19t19 8q9 0 17 -8t10 -17l118 -121q14 25 20.5 53.5t6.5 59.5v1014q0 35 -8.5 69.5t-28.5 61.5t-53 44t-82 17t-82 -17t-53 -44t-28.5 -61.5t-8.5 -69.5v-1014z " />
<glyph unicode="R" horiz-adv-x="582" d="M82 6q0 9 6 17v1411h219q61 0 101.5 -20t65.5 -53t35.5 -75t10.5 -86v-563q0 -44 -10.5 -85t-35.5 -72.5t-65.5 -50.5t-101.5 -19h-31l224 -379q7 -2 14 -11q6 -9 3.5 -19.5t-13.5 -16.5q-5 -5 -12 -5q-3 -1 -7 1q-11 4 -16 12q-3 5 -3.5 9t-0.5 9l-236 400h-100v-387 q6 -8 6 -17q0 -11 -7.5 -18.5t-18.5 -7.5t-19 7.5t-8 18.5zM129 451h178q49 0 82 15.5t53 41.5t28.5 59.5t8.5 69.5v563q0 35 -8.5 69.5t-28.5 62t-53 44.5t-82 17h-178v-942z" />
<glyph unicode="S" horiz-adv-x="545" d="M51 1044v177q0 43 11 85t36 75t66 53t102 20q57 0 96.5 -18t64.5 -48t37.5 -68.5t14.5 -80.5q3 -3 4.5 -8t1.5 -10q0 -11 -7.5 -19t-18.5 -8t-19 8t-8 19q0 10 6 16q-2 33 -11.5 64.5t-30 56.5t-52.5 40t-78 15q-49 0 -82.5 -17t-53.5 -44t-29 -61.5t-9 -69.5v-177 q2 -51 15.5 -90.5t48.5 -70.5l241 -213q54 -50 72 -103t18 -104v-256q0 -44 -11 -85t-36 -72.5t-66 -50.5t-102 -19q-57 0 -96 17t-64.5 45.5t-37.5 66.5t-15 79q-3 4 -4.5 9t-1.5 10q0 11 8 18.5t19 7.5t18.5 -7.5t7.5 -18.5q0 -5 -1.5 -10t-4.5 -9q1 -34 11 -64.5 t30.5 -53.5t52.5 -36.5t78 -13.5q49 0 82.5 15.5t53.5 42t29 60t9 69.5v256q0 52 -20.5 99.5t-58.5 82.5l-240 213q-25 22 -40 45.5t-23 46.5t-10.5 46.5t-2.5 47.5z" />
<glyph unicode="T" horiz-adv-x="479" d="M20 1413q0 11 8 19t19 8q10 0 16 -6h351q9 6 18 6q11 0 19 -8t8 -19t-8 -19t-19 -8q-8 0 -18 7h-154v-1370q6 -8 6 -17q0 -11 -7.5 -18.5t-18.5 -7.5t-19 7.5t-8 18.5q0 9 6 17v1370h-156q-7 -7 -16 -7q-11 0 -19 8t-8 19z" />
<glyph unicode="U" d="M80 1427q0 11 7.5 19t18.5 8t19 -8t8 -19q0 -9 -6 -18v-1196q0 -35 8.5 -69.5t28.5 -62t53 -44.5t82 -17t82 17t53 44.5t28.5 62t8.5 69.5v1196q-6 9 -6 18q0 11 8 19t19 8t18.5 -8t7.5 -19q0 -9 -6 -18v-1196q0 -44 -11 -86t-36 -74.5t-66 -52.5t-100 -20q-61 0 -102 20 t-65.5 52.5t-35 74.5t-10.5 86v1196q-6 9 -6 18z" />
<glyph unicode="V" horiz-adv-x="537" d="M25 1427q0 11 7.5 19t18.5 8t19 -8t8 -19q0 -5 -1 -8t-3 -6l194 -1268l195 1268q-3 3 -3.5 6t-0.5 8q0 11 7.5 19t18.5 8t19 -8t8 -19q0 -6 -2.5 -10.5t-5.5 -9.5l-213 -1387q4 -8 4 -14q0 -11 -8 -18.5t-19 -7.5t-18.5 7.5t-7.5 18.5q0 3 0.5 7t3.5 7l-213 1387 q-8 8 -8 20z" />
<glyph unicode="W" horiz-adv-x="971" d="M25 1427q0 11 7.5 19t18.5 8t19 -8t8 -19q0 -5 -1 -8t-3 -6l194 -1268l195 1268q-3 3 -3.5 6t-0.5 8q0 11 7.5 19t18.5 8t19 -8t8 -19q0 -5 -1 -8t-3 -6l194 -1268l195 1268q-3 3 -3.5 6t-0.5 8q0 11 8 19t19 8t18.5 -8t7.5 -19q0 -6 -2.5 -10.5t-5.5 -9.5l-213 -1387 q4 -8 4 -14q0 -11 -8 -18.5t-19 -7.5t-18.5 7.5t-7.5 18.5q0 3 0.5 7t3.5 7l-195 1268l-194 -1268q4 -8 4 -14q0 -11 -8 -18.5t-19 -7.5t-18.5 7.5t-7.5 18.5q0 3 0.5 7t3.5 7l-213 1387q-8 8 -8 20z" />
<glyph unicode="X" horiz-adv-x="512" d="M8 6q0 14 10 21l215 714l-198 664q-10 10 -10 22q0 11 7.5 19t18.5 8t19 -8t8 -19q0 -3 -1 -5.5t-1 -4.5l180 -602l182 602q-2 2 -2 10q0 11 8 19t19 8t18.5 -8t7.5 -19q0 -12 -10 -22l-200 -664l215 -714q6 -3 9 -9t3 -12q0 -11 -8 -18.5t-19 -7.5t-18.5 7.5t-7.5 18.5 v8l-197 654l-197 -654q2 -4 2 -8q0 -11 -7.5 -18.5t-18.5 -7.5t-19 7.5t-8 18.5z" />
<glyph unicode="Y" horiz-adv-x="502" d="M8 1427q0 11 8 19t19 8t18.5 -8t7.5 -19q0 -6 -2 -10l189 -344h6l188 344v10q0 11 8 19t19 8t19 -8t8 -19q0 -9 -5.5 -15t-11.5 -9l-207 -379v-1001q7 -9 7 -17q0 -11 -8 -18.5t-19 -7.5t-19 7.5t-8 18.5q0 9 6 17v1001l-206 379q-17 6 -17 24z" />
<glyph unicode="Z" horiz-adv-x="489" d="M27 0v41l391 1352h-348q-7 -7 -17 -7q-11 0 -18.5 8t-7.5 19t7.5 19t18.5 8t17 -6h391v-41l-391 -1352h346q9 6 18 6q11 0 19 -8t8 -19t-8 -18.5t-19 -7.5q-9 0 -18 6h-389z" />
<glyph unicode="[" horiz-adv-x="371" d="M102 -164v1761h201q8 7 19 7t18.5 -8t7.5 -19t-7.5 -19t-18.5 -8q-10 0 -19 6h-158v-1679h158q9 6 19 6q11 0 18.5 -7.5t7.5 -18.5t-7.5 -19t-18.5 -8q-10 0 -19 6h-201z" />
<glyph unicode="\" horiz-adv-x="573" d="M47 1427q0 -8 4 -14.5t12 -9.5l414 -1585q-4 -8 -4 -13q0 -11 7.5 -18.5t18.5 -7.5t19 7.5t8 18.5q0 18 -14 25l-414 1585q2 4 2 12q0 11 -8 19t-19 8t-18.5 -8t-7.5 -19z" />
<glyph unicode="]" horiz-adv-x="371" d="M23 -143q0 11 7.5 18.5t18.5 7.5q10 0 19 -6h158v1679h-158q-9 -6 -19 -6q-11 0 -18.5 8t-7.5 19t7.5 19t18.5 8t19 -7h201v-1761h-201q-9 -6 -19 -6q-11 0 -18.5 8t-7.5 19z" />
<glyph unicode="^" d="M102 535q0 6 2 11.5t7 8.5l172 858q-2 3 -2 7v7q0 11 7.5 19t18.5 8t19 -8t8 -19q0 -5 -1 -8t-3 -6l159 -862q7 -6 7 -16q0 -11 -6.5 -19t-20.5 -8t-20.5 8t-6.5 19q0 4 4 12l-141 766l-153 -764q4 -8 4 -14q0 -11 -8 -19t-19 -8t-19 8t-8 19z" />
<glyph unicode="_" horiz-adv-x="571" d="M30 23q0 11 8 19t19 8q10 0 16 -7h426q8 7 19 7t18.5 -8t7.5 -19t-7.5 -19t-18.5 -8q-10 0 -19 6h-426q-6 -6 -16 -6q-11 0 -19 8t-8 19z" />
<glyph unicode="`" horiz-adv-x="451" d="M82 1427q0 11 8 19t19 8q9 0 16.5 -7.5t9.5 -16.5l209 -209q9 -2 17 -10t8 -17q0 -11 -8 -19t-19 -8t-19 8t-8 19l-206 207q-11 0 -19 7.5t-8 18.5z" />
<glyph unicode="a" horiz-adv-x="563" d="M55 811q0 5 1.5 10t4.5 8q3 42 15 80.5t37.5 68.5t64.5 48t96 18q60 0 100.5 -20.5t65 -53.5t35 -75t10.5 -86v-786q7 -9 7 -17q0 -11 -8 -18.5t-19 -7.5t-19 7.5t-8 18.5q0 9 6 17v43q-27 -39 -67.5 -62.5t-102.5 -23.5q-60 0 -100.5 20.5t-65 53.5t-35 75t-10.5 86v166 q0 44 9.5 86t37 75t79 53.5t135.5 20.5h120v193q0 35 -8.5 70t-28 62.5t-52.5 45t-81 17.5q-46 0 -78 -15.5t-52.5 -40t-30.5 -56.5t-11 -65q7 -7 7 -16t-8 -17t-19 -8t-19 8t-8 17zM104 215q0 -35 8 -70t27.5 -63t52 -45t82.5 -17q48 0 80 15.5t51.5 41t28 58t10.5 66.5 v374h-120q-72 0 -115.5 -17t-67 -44.5t-30.5 -62.5t-7 -70v-166z" />
<glyph unicode="b" horiz-adv-x="573" d="M76 6q0 9 6 17v1386q-6 9 -6 18q0 11 7.5 19t18.5 8t19 -8t8 -19q0 -9 -6 -18v-460q28 48 68 71.5t102 23.5q61 0 101.5 -20.5t65 -53.5t34.5 -75t10 -86v-594q0 -44 -10 -86t-34.5 -75t-65 -53.5t-101.5 -20.5q-62 0 -102 23.5t-68 62.5v-43q6 -8 6 -17q0 -11 -8 -18.5 t-19 -7.5t-18.5 7.5t-7.5 18.5zM123 215q0 -34 8.5 -68.5t28.5 -62.5t52.5 -46t80.5 -18q50 0 82.5 17t52 45t27.5 63t8 70v594q0 35 -8 70t-27.5 62.5t-52 45t-82.5 17.5q-43 0 -75 -17.5t-53 -45t-31.5 -62.5t-10.5 -70v-594z" />
<glyph unicode="c" horiz-adv-x="539" d="M72 215v594q0 44 10.5 86t35 75t65 53.5t100.5 20.5q57 0 96 -18t64.5 -48t37.5 -68.5t15 -80.5q3 -3 4.5 -8t1.5 -10q0 -9 -8 -17t-19 -8t-18.5 8t-7.5 17q0 10 6 16q-2 33 -11.5 65t-30 56.5t-52.5 40t-78 15.5q-48 0 -81 -17.5t-52.5 -45t-28 -62.5t-8.5 -70v-594 q0 -36 8.5 -71t28 -62.5t52.5 -44.5t81 -17q46 0 78 14.5t52.5 39t30 56t11.5 65.5q-3 3 -4.5 8t-1.5 10q0 9 7.5 17t18.5 8t19 -8t8 -17q0 -5 -1.5 -10t-4.5 -8q-3 -42 -15 -80.5t-37.5 -68.5t-64.5 -48t-96 -18q-60 0 -100.5 20.5t-65 53.5t-35 75t-10.5 86z" />
<glyph unicode="d" horiz-adv-x="575" d="M72 215v594q0 44 10 86t34.5 75t65 53.5t101.5 20.5q62 0 102 -23.5t68 -71.5v460q-6 9 -6 18q0 11 8 19t19 8t18.5 -8t7.5 -19q0 -9 -6 -18v-1386q6 -8 6 -17q0 -11 -7.5 -18.5t-18.5 -7.5t-19 7.5t-8 18.5q0 9 6 17v43q-28 -39 -68 -62.5t-102 -23.5q-61 0 -101.5 20.5 t-65 53.5t-34.5 75t-10 86zM113 215q0 -35 8 -70t27.5 -63t52 -45t82.5 -17q48 0 80.5 18t52.5 46t28.5 62.5t8.5 68.5v594q0 35 -10.5 70t-31.5 62.5t-53 45t-75 17.5q-50 0 -82.5 -17.5t-52 -45t-27.5 -62.5t-8 -70v-594z" />
<glyph unicode="e" horiz-adv-x="555" d="M72 215v594q0 44 10.5 86t35 75t65 53.5t100.5 20.5t100 -20.5t65 -53.5t35.5 -75t10.5 -86v-234h-381v-360q0 -36 8.5 -71t28 -62.5t52.5 -44.5t81 -17q47 0 79 15t51.5 39.5t28.5 56.5t11 66q-3 3 -5 8t-2 8q0 11 8 19t19 8t19 -8t8 -19q0 -3 -1.5 -8t-4.5 -8 q-3 -42 -14.5 -81t-35.5 -69t-63.5 -48.5t-97.5 -18.5q-60 0 -100.5 20.5t-65 53.5t-35 75t-10.5 86zM113 616h340v193q0 35 -8 70t-27.5 62.5t-52.5 45t-82 17.5q-48 0 -81 -17.5t-52.5 -45t-28 -62.5t-8.5 -70v-193z" />
<glyph unicode="f" horiz-adv-x="399" d="M6 1004q0 11 8 18.5t19 7.5q10 0 16 -6h92v174q0 42 10 83.5t33.5 74.5t62 54t95.5 24q9 6 18 6q11 0 19 -8t8 -19t-8 -19t-19 -8q-8 0 -18 7q-45 -3 -75.5 -20.5t-49 -45t-26.5 -61.5t-9 -68v-174h160q9 6 18 6q11 0 19 -7.5t8 -18.5t-8 -19t-19 -8q-9 0 -18 6h-160 v-960q6 -8 6 -17q0 -11 -7.5 -18.5t-18.5 -7.5t-19 7.5t-8 18.5q0 9 6 17v960h-92q-6 -6 -16 -6q-11 0 -19 8t-8 19z" />
<glyph unicode="g" horiz-adv-x="573" d="M63 -197q0 10 8 17.5t19 7.5t19 -7.5t8 -17.5q0 -5 -1.5 -10t-4.5 -8q1 -34 11 -65.5t30.5 -55.5t52.5 -38.5t78 -14.5q48 0 81 17t52.5 44t28 62t8.5 71v261q-28 -39 -68 -62.5t-102 -23.5q-61 0 -101.5 20.5t-65 53.5t-34.5 75t-10 86v594q0 44 10 86t34.5 75t65 53.5 t101.5 20.5q62 0 102 -23.5t68 -62.5v43q-7 12 -7 19q0 11 8 19t19 8t19 -8t8 -19q0 -9 -6 -19v-1196q0 -44 -10.5 -86t-35.5 -75t-65 -53.5t-100 -20.5q-57 0 -96.5 18t-64.5 48t-37.5 68.5t-14.5 80.5q-7 7 -7 18zM113 215q0 -35 8 -70t27.5 -63t52 -45t82.5 -17 q48 0 80 15.5t51.5 41t28 58t10.5 66.5v608q0 35 -10.5 70t-31.5 62.5t-53 45t-75 17.5q-50 0 -82.5 -17.5t-52 -45t-27.5 -62.5t-8 -70v-594z" />
<glyph unicode="h" horiz-adv-x="582" d="M76 6q0 9 6 17v1386q-6 9 -6 18q0 11 7.5 19t18.5 8t19 -8t8 -19q0 -9 -6 -18v-460q28 48 71.5 71.5t98.5 23.5q61 0 101.5 -20.5t65 -53.5t34.5 -75t10 -86v-786q6 -8 6 -17q0 -11 -8 -18.5t-19 -7.5t-18.5 7.5t-7.5 18.5q0 9 6 17v786q0 35 -8 70t-27.5 62.5t-52 45 t-82.5 17.5q-43 0 -75 -17.5t-53 -45t-31.5 -62.5t-10.5 -70v-786q6 -8 6 -17q0 -11 -8 -18.5t-19 -7.5t-18.5 7.5t-7.5 18.5z" />
<glyph unicode="i" horiz-adv-x="215" d="M82 6q0 9 6 17v976q-6 10 -6 19q0 11 8 18.5t19 7.5t18.5 -7.5t7.5 -18.5q0 -9 -6 -19v-976q6 -8 6 -17q0 -11 -7.5 -18.5t-18.5 -7.5t-19 7.5t-8 18.5zM82 1254q0 10 6 16v59q-6 10 -6 19q0 11 8 18.5t19 7.5t18.5 -7.5t7.5 -18.5q0 -9 -6 -19v-59q6 -6 6 -16 q0 -11 -7.5 -19t-18.5 -8t-19 8t-8 19z" />
<glyph unicode="j" horiz-adv-x="213" d="M-119 -403q0 11 8 18.5t19 7.5q9 0 18 -6q45 2 75.5 20t49 45t26.5 61t9 69v1187q-6 10 -6 19q0 11 7.5 18.5t18.5 7.5t19 -7.5t8 -18.5q0 -9 -6 -19v-1187q0 -42 -10.5 -83.5t-34 -74.5t-62 -54.5t-94.5 -23.5q-9 -6 -18 -6q-11 0 -19 8t-8 19zM80 1254q0 10 6 16v59 q-6 10 -6 19q0 11 8 18.5t19 7.5t18.5 -7.5t7.5 -18.5q0 -9 -6 -19v-59q6 -6 6 -16q0 -11 -7.5 -19t-18.5 -8t-19 8t-8 19z" />
<glyph unicode="k" horiz-adv-x="512" d="M76 6q0 9 6 17v1386q-6 9 -6 18q0 11 7.5 19t18.5 8t19 -8t8 -19q0 -9 -6 -18v-938l328 543v4q0 11 7.5 18.5t18.5 7.5t19 -7.5t8 -18.5q0 -20 -19 -27l-243 -403l254 -559q14 -7 14 -23q0 -11 -8 -18.5t-19 -7.5t-18.5 7.5t-7.5 18.5v8l-242 531l-92 -154v-368 q6 -8 6 -17q0 -11 -8 -18.5t-19 -7.5t-18.5 7.5t-7.5 18.5z" />
<glyph unicode="l" horiz-adv-x="215" d="M82 6q0 9 6 17v1386q-6 9 -6 18q0 11 8 19t19 8t18.5 -8t7.5 -19q0 -9 -6 -18v-1386q6 -8 6 -17q0 -11 -7.5 -18.5t-18.5 -7.5t-19 7.5t-8 18.5z" />
<glyph unicode="m" horiz-adv-x="872" d="M76 6q0 9 6 17v976q-6 10 -6 19q0 11 7.5 18.5t18.5 7.5t19 -7.5t8 -18.5q0 -9 -6 -19v-34q25 38 60 58.5t89 20.5q72 0 111.5 -30t56.5 -76q23 55 69.5 80.5t98.5 25.5q54 0 90 -18t57.5 -47t30.5 -66t9 -75v-815q6 -8 6 -17q0 -11 -8 -18.5t-19 -7.5t-18.5 7.5 t-7.5 18.5q0 9 6 17v813q0 30 -7 60t-24 54t-45.5 39t-71.5 15q-41 0 -68.5 -13.5t-44.5 -35.5t-25 -50t-9 -57v-825q6 -8 6 -17q0 -11 -8 -18.5t-19 -7.5t-18.5 7.5t-7.5 18.5q0 9 6 17v813q0 30 -7 60t-24 54t-45.5 39t-71.5 15q-41 0 -69.5 -13.5t-45.5 -35.5t-24.5 -50 t-7.5 -57v-825q6 -8 6 -17q0 -11 -8 -18.5t-19 -7.5t-18.5 7.5t-7.5 18.5z" />
<glyph unicode="n" horiz-adv-x="582" d="M76 6q0 9 6 17v976q-6 10 -6 19q0 11 7.5 18.5t18.5 7.5t19 -7.5t8 -18.5q0 -9 -6 -19v-51q28 49 68 72.5t102 23.5q61 0 101.5 -20.5t65 -53.5t34.5 -75t10 -86v-786q6 -8 6 -17q0 -11 -8 -18.5t-19 -7.5t-18.5 7.5t-7.5 18.5q0 9 6 17v786q0 35 -8 70t-27.5 62.5 t-52 45t-82.5 17.5q-43 0 -75 -17.5t-53 -45t-31.5 -62.5t-10.5 -70v-786q6 -8 6 -17q0 -11 -8 -18.5t-19 -7.5t-18.5 7.5t-7.5 18.5z" />
<glyph unicode="o" horiz-adv-x="565" d="M72 215v594q0 44 10.5 86t35 75t65 53.5t100.5 20.5t100 -20.5t65 -53.5t35.5 -75t10.5 -86v-594q0 -44 -10.5 -86t-35.5 -75t-65 -53.5t-100 -20.5t-100.5 20.5t-65 53.5t-35 75t-10.5 86zM113 215q0 -36 8.5 -71t28 -62.5t52.5 -44.5t81 -17q49 0 82 17t52.5 44.5 t27.5 62.5t8 71v594q0 35 -8 70t-27.5 62.5t-52.5 45t-82 17.5q-48 0 -81 -17.5t-52.5 -45t-28 -62.5t-8.5 -70v-594z" />
<glyph unicode="p" horiz-adv-x="573" d="M76 -403q0 9 6 18v1386q-6 8 -6 17q0 11 7.5 18.5t18.5 7.5t19 -7.5t8 -18.5q0 -9 -6 -17v-43q28 39 68 62.5t102 23.5q61 0 101.5 -20.5t65 -53.5t34.5 -75t10 -86v-594q0 -44 -10 -86t-34.5 -75t-65 -53.5t-101.5 -20.5q-62 0 -102 23.5t-68 71.5v-460q6 -9 6 -18 q0 -11 -8 -19t-19 -8t-18.5 8t-7.5 19zM123 215q0 -35 10.5 -70t31.5 -62.5t53 -45t75 -17.5q50 0 82.5 17.5t52 45t27.5 62.5t8 70v594q0 35 -8 70t-27.5 63t-52 45t-82.5 17q-48 0 -80.5 -18t-52.5 -46t-28.5 -62.5t-8.5 -68.5v-594z" />
<glyph unicode="q" horiz-adv-x="575" d="M72 215v594q0 44 10 86t34.5 75t65 53.5t101.5 20.5q62 0 102 -23.5t68 -62.5v43q-6 8 -6 17q0 11 8 18.5t19 7.5t18.5 -7.5t7.5 -18.5q0 -9 -6 -17v-1386q6 -9 6 -18q0 -11 -7.5 -19t-18.5 -8t-19 8t-8 19q0 9 6 18v460q-28 -48 -68 -71.5t-102 -23.5q-61 0 -101.5 20.5 t-65 53.5t-34.5 75t-10 86zM113 215q0 -35 8 -70t27.5 -62.5t52 -45t82.5 -17.5q43 0 75 17.5t53 45t31.5 62.5t10.5 70v594q0 34 -8.5 68.5t-28.5 62.5t-52.5 46t-80.5 18q-50 0 -82.5 -17t-52 -45t-27.5 -63t-8 -70v-594z" />
<glyph unicode="r" horiz-adv-x="385" d="M76 6q0 9 6 17v976q-6 10 -6 19q0 11 7.5 18.5t18.5 7.5t19 -7.5t8 -18.5q0 -9 -6 -19v-71q28 48 68 72t102 24h35q9 6 18 6q11 0 19 -7.5t8 -18.5t-8 -19t-19 -8q-9 0 -18 6h-35q-43 0 -75 -17t-53 -45t-31.5 -62.5t-10.5 -70.5v-765q6 -8 6 -17q0 -11 -8 -18.5 t-19 -7.5t-18.5 7.5t-7.5 18.5z" />
<glyph unicode="s" horiz-adv-x="541" d="M33 225q0 11 7.5 19t18.5 8t19 -8t8 -19q0 -4 -4 -12q1 -36 11.5 -71t32 -62.5t56 -44.5t84.5 -17q58 0 94 18.5t56 49t26.5 68.5t6.5 77q0 51 -18.5 95.5t-55.5 79.5l-232 208q-24 22 -38.5 43.5t-22.5 45t-11 48.5t-3 54q0 47 11 90t36.5 76t66.5 53t101 20 q54 0 92 -18t62 -48t36 -68.5t14 -80.5q7 -6 7 -16q0 -11 -8 -19t-19 -8q-9 0 -17 8t-8 19q0 8 7 14q-2 33 -12 65t-30 56.5t-50.5 40t-73.5 15.5q-48 0 -81.5 -17t-54 -44.5t-29.5 -63.5t-9 -74q1 -59 14 -96t47 -66l233 -209q26 -24 43 -49t26.5 -51t13 -52t3.5 -51 q0 -52 -10.5 -98t-36 -80t-68.5 -53.5t-108 -19.5q-62 0 -104 19t-68.5 50.5t-39.5 72.5t-15 85q-3 3 -4.5 8t-1.5 10z" />
<glyph unicode="t" horiz-adv-x="391" d="M10 1004q0 11 8 18.5t19 7.5q10 0 16 -6h92v305q-6 10 -6 19q0 11 8 18.5t19 7.5t19 -7.5t8 -18.5q0 -7 -7 -19v-305h160q9 6 19 6q11 0 18.5 -7.5t7.5 -18.5t-7.5 -19t-18.5 -8q-10 0 -19 6h-160v-762q0 -37 8 -71t26.5 -61t49.5 -44t76 -18q9 6 19 6q11 0 18.5 -8 t7.5 -19t-7.5 -18.5t-18.5 -7.5q-10 0 -19 6q-57 2 -95.5 23t-62 53.5t-33.5 74t-10 84.5v762h-92q-6 -6 -16 -6q-11 0 -19 8t-8 19z" />
<glyph unicode="u" horiz-adv-x="582" d="M72 1018q0 11 7.5 18.5t18.5 7.5t19 -7.5t8 -18.5q0 -9 -6 -19v-784q0 -35 8 -70t27.5 -63t52 -45t82.5 -17q45 0 77.5 15.5t53 41.5t30 59.5t9.5 68.5v794q-6 10 -6 19q0 11 7.5 18.5t18.5 7.5t19 -7.5t8 -18.5q0 -9 -6 -19v-976q6 -8 6 -17q0 -11 -8 -18.5t-19 -7.5 t-18.5 7.5t-7.5 18.5q0 9 6 17v53q-28 -49 -68 -72.5t-102 -23.5q-61 0 -101.5 20.5t-65 53.5t-34.5 75t-10 86v784q-6 10 -6 19z" />
<glyph unicode="v" horiz-adv-x="516" d="M14 1018q0 11 8 18.5t19 7.5t19 -7.5t8 -18.5q0 -7 -5 -14l195 -898l193 898q-2 3 -2 7v7q0 11 7.5 18.5t18.5 7.5t19 -7.5t8 -18.5q0 -14 -10 -21l-211 -979q4 -8 4 -12q0 -11 -8 -18.5t-19 -7.5t-19 7.5t-8 18.5q0 8 2 12l-210 979q-5 3 -7 9t-2 12z" />
<glyph unicode="w" horiz-adv-x="952" d="M14 1018q0 11 8 18.5t19 7.5t19 -7.5t8 -18.5q0 -7 -5 -14l195 -898l193 898q-2 3 -2 7v7q0 11 7.5 18.5t18.5 7.5t19 -7.5t8 -18.5q0 -6 -4 -14l194 -898l193 898q-2 3 -2 7v7q0 11 7.5 18.5t18.5 7.5t19 -7.5t8 -18.5q0 -14 -10 -21l-211 -979q4 -8 4 -12 q0 -11 -8 -18.5t-19 -7.5t-18.5 7.5t-7.5 18.5q0 8 2 12l-193 897l-194 -897q4 -8 4 -12q0 -11 -8 -18.5t-19 -7.5t-19 7.5t-8 18.5q0 8 2 12l-210 979q-5 3 -7 9t-2 12z" />
<glyph unicode="x" horiz-adv-x="520" d="M6 6q0 14 12 23l220 501l-193 465q-12 6 -12 23q0 11 7.5 18.5t18.5 7.5t19 -7.5t8 -18.5q0 -6 -2 -8l176 -424l184 424v8q0 11 8 18.5t19 7.5t19 -7.5t8 -18.5q0 -16 -13 -23l-202 -465l209 -501q5 -5 8.5 -11t3.5 -12q0 -11 -8 -18.5t-19 -7.5t-18.5 7.5t-7.5 18.5v8 l-191 463l-203 -463q2 -4 2 -8q0 -11 -7.5 -18.5t-18.5 -7.5t-19 7.5t-8 18.5z" />
<glyph unicode="y" horiz-adv-x="516" d="M0 -403q0 11 8 18.5t19 7.5q8 0 16 -4q43 3 69.5 21t42.5 45.5t25 60.5t17 66l41 196l-213 989q-5 3 -7 9t-2 12q0 11 8 18.5t19 7.5t19 -7.5t8 -18.5q0 -6 -4 -14l194 -898l193 898q-2 3 -2 7v7q0 11 7.5 18.5t18.5 7.5t19 -7.5t8 -18.5q0 -14 -10 -21l-213 -985 l-43 -200q-9 -41 -20.5 -81t-32.5 -73t-54 -54.5t-86 -25.5q-5 -3 -9 -5.5t-9 -2.5q-11 0 -19 8t-8 19z" />
<glyph unicode="z" horiz-adv-x="502" d="M31 20q0 18 14 25l363 938h-334q-6 -6 -17 -6t-18.5 8t-7.5 19t7.5 18.5t18.5 7.5t17 -6h352q9 6 18 6q11 0 19 -7.5t8 -18.5q0 -10 -5 -17t-13 -10l-363 -936h336q9 6 18 6q11 0 19 -8t8 -19t-8 -18.5t-19 -7.5q-9 0 -18 6h-352q-6 -6 -17 -6t-18.5 7.5t-7.5 18.5z" />
<glyph unicode="{" horiz-adv-x="451" d="M2 696v41q54 0 90.5 17t58 44.5t30.5 62t9 69.5v424q0 43 10 84.5t33 75.5t60.5 56t91.5 25q3 3 7.5 6t10.5 3q11 0 19 -8t8 -19t-8 -19t-19 -8q-12 0 -18 6q-43 -3 -72.5 -21.5t-47.5 -47t-26 -63.5t-8 -70v-424q0 -34 -6 -66t-20 -60t-36.5 -50.5t-55.5 -36.5 q33 -14 55.5 -36.5t36.5 -50.5t20 -60t6 -66v-424q0 -35 8 -70t26 -63.5t47.5 -47.5t72.5 -22q6 6 18 6q11 0 19 -7.5t8 -18.5t-8 -19t-19 -8q-10 0 -18 8q-54 3 -91.5 25t-60.5 56t-33 76t-10 85v424q0 35 -9 69.5t-30.5 61.5t-58 44t-90.5 17z" />
<glyph unicode="|" horiz-adv-x="248" d="M96 -145q0 9 6 18v1686q-6 9 -6 18q0 11 8 19t19 8t19 -8t8 -19q0 -8 -7 -18v-1686q7 -11 7 -18q0 -11 -8 -19t-19 -8t-19 8t-8 19z" />
<glyph unicode="}" horiz-adv-x="451" d="M20 -143q0 11 8 18.5t19 7.5q12 0 18 -6q43 3 72.5 22t47.5 47.5t26 63.5t8 70v424q0 34 6 66t20 60t36.5 50.5t55.5 36.5q-33 14 -55.5 36.5t-36.5 50.5t-20 60t-6 66v424q0 35 -8 70t-26 63.5t-47.5 47t-72.5 21.5q-6 -6 -18 -6q-11 0 -19 8t-8 19t8 19t19 8 q6 0 10.5 -3t7.5 -6q54 -3 91.5 -25t60.5 -56t33 -75.5t10 -84.5v-424q0 -35 9 -69.5t30.5 -62t58 -44.5t90.5 -17v-41q-54 0 -90.5 -17t-58 -44t-30.5 -61.5t-9 -69.5v-424q0 -43 -10 -85t-33 -76t-60.5 -56t-91.5 -25q-8 -8 -18 -8q-11 0 -19 8t-8 19z" />
<glyph unicode="~" horiz-adv-x="575" d="M71 645q0 14 8 19v14q0 34 9.5 56t25.5 35t36 18.5t40 5.5q25 0 44.5 -10t35.5 -24.5t30 -32t28.5 -32t29.5 -24.5t34 -10q28 0 49 14.5t21 58.5v15q-6 9 -6 18q0 11 8 19t19 8t18.5 -8t7.5 -19q0 -7 -2.5 -11.5t-5.5 -8.5v-13q0 -32 -9 -54t-24 -35.5t-35.5 -19 t-42.5 -5.5q-25 0 -45 10t-36 24.5t-30 32t-28 32t-29 24.5t-34 10q-28 0 -49 -15t-21 -59v-16q6 -6 6 -17t-7.5 -18.5t-18.5 -7.5t-19 7.5t-8 18.5z" />
<glyph unicode="&#xa1;" horiz-adv-x="256" d="M82 1409q0 19 11.5 32t33.5 13q23 0 35 -13t12 -32q0 -20 -12 -34q-12 -13 -35 -13q-22 0 -33.5 13.5t-11.5 33.5zM100 6q0 10 7 17v1099q-7 8 -7 19t8 18.5t19 7.5t19 -7.5t8 -18.5q0 -10 -6 -19v-1099q6 -8 6 -17q0 -11 -8 -18.5t-19 -7.5t-19 7.5t-8 18.5z" />
<glyph unicode="&#xa2;" horiz-adv-x="582" d="M86 215v594q0 44 10.5 86t35 75t64.5 53q35 18 83 20v106q-7 8 -7 18q0 11 8 19t19 8t19 -8t8 -19q0 -10 -7 -18v-106q43 -3 74 -17q39 -18 64.5 -48t37.5 -68.5t15 -80.5q3 -3 4.5 -8t1.5 -10q0 -9 -8 -17t-19 -8t-18.5 8t-7.5 17q0 10 6 16q-2 33 -11.5 65t-30 56.5 t-52.5 40t-78 15.5q-48 0 -81 -17.5t-52.5 -45t-28 -62.5t-8.5 -70v-594q0 -36 8.5 -71t28 -62.5t52.5 -44.5t81 -17q46 0 78 14.5t52.5 39t30 56t11.5 65.5q-3 3 -4.5 8t-1.5 10q0 9 7.5 17t18.5 8t19 -8t8 -17q0 -5 -1.5 -10t-4.5 -8q-3 -42 -15 -80.5t-37.5 -68.5 t-64.5 -48q-31 -14 -74 -17v-108q7 -8 7 -18q0 -11 -8 -19t-19 -8t-19 8t-8 19q0 10 7 18v108q-48 2 -83 19q-40 21 -64.5 54t-35 75t-10.5 86z" />
<glyph unicode="&#xa3;" horiz-adv-x="702" d="M49 1004q0 11 8 18.5t19 7.5q10 0 16 -6h96v178q0 44 10.5 85.5t35 74t66 52.5t103.5 20h179q9 6 18 6q11 0 19 -8t8 -19t-8 -19t-19 -8q-8 0 -18 7h-179q-51 0 -84.5 -16.5t-53.5 -43.5t-28 -61.5t-8 -69.5v-178h293q9 6 19 6q11 0 18.5 -7.5t7.5 -18.5t-7.5 -19 t-18.5 -8q-10 0 -19 6h-293v-942h355q9 6 18 6q11 0 19 -8t8 -19t-8 -18.5t-19 -7.5q-9 0 -18 6h-396v983h-96q-6 -6 -16 -6q-11 0 -19 8t-8 19z" />
<glyph unicode="&#xa4;" horiz-adv-x="702" d="M70 471q0 11 7.5 19t18.5 8l123 120v252l-123 121q-11 0 -18.5 8t-7.5 19t7.5 18.5t18.5 7.5q10 0 17.5 -7.5t9.5 -16.5l96 -94q1 24 8.5 48t23.5 43t41 30.5t60 11.5q34 0 58.5 -11.5t40 -30.5t23 -43t9.5 -48l97 94q0 9 7.5 16.5t18.5 7.5t19 -7.5t8 -18.5t-8 -19 t-19 -8l-123 -121v-252l123 -120q11 0 19 -8t8 -19t-8 -19t-19 -8t-18.5 7t-7.5 18l-97 94q-2 -25 -9.5 -49t-23 -42.5t-40 -30t-58.5 -11.5q-35 0 -60 11.5t-41 30t-23.5 42.5t-8.5 49l-96 -94q-2 -11 -9.5 -18t-17.5 -7q-11 0 -18.5 8t-7.5 19zM260 573q0 -18 4.5 -36.5 t15.5 -33t28.5 -23.5t43.5 -9t43.5 9t28 23.5t14.5 33t4 36.5v342q0 19 -4 37.5t-14.5 33t-28 23.5t-43.5 9t-43.5 -9t-28.5 -23.5t-15.5 -33t-4.5 -37.5v-342z" />
<glyph unicode="&#xa5;" horiz-adv-x="614" d="M63 819q0 11 8 19t19 8q10 0 16 -6h181v143h-181q-6 -6 -16 -6q-11 0 -19 8t-8 19t8 18.5t19 7.5q10 0 16 -6h181l-207 379q-17 7 -17 24q0 11 8 19t19 8t19 -8t8 -19q0 -6 -2 -10l188 -344h6l189 344v10q0 11 7.5 19t18.5 8t19 -8t8 -19q0 -9 -5 -15t-11 -9l-207 -379 h178q9 6 18 6q11 0 19 -7.5t8 -18.5t-8 -19t-19 -8q-9 0 -18 6h-178v-143h178q9 6 18 6q11 0 19 -8t8 -19t-8 -18.5t-19 -7.5q-9 0 -18 6h-178v-776q6 -8 6 -17q0 -11 -8 -18.5t-19 -7.5t-18.5 7.5t-7.5 18.5q0 9 6 17v776h-181q-6 -6 -16 -6q-11 0 -19 7.5t-8 18.5z" />
<glyph unicode="&#xa6;" horiz-adv-x="256" d="M102 -145q0 10 7 18v614q-7 10 -7 19q0 11 8 18.5t19 7.5t19 -7.5t8 -18.5q0 -9 -6 -19v-614q6 -9 6 -18q0 -11 -8 -19t-19 -8t-19 8t-8 19zM102 907q0 11 7 17v635q-7 8 -7 18q0 11 8 19t19 8t19 -8t8 -19q0 -9 -6 -18v-635q6 -6 6 -17t-8 -18.5t-19 -7.5t-19 7.5 t-8 18.5z" />
<glyph unicode="&#xa7;" horiz-adv-x="590" d="M78 63q0 11 7.5 19t18.5 8t19 -8t8 -19q0 -5 -1.5 -10t-4.5 -8q1 -34 11 -64.5t30.5 -53.5t52.5 -36.5t78 -13.5q49 0 82.5 15.5t53.5 41.5t29 59.5t9 69.5v179q0 52 -21 99.5t-59 82.5l-239 213q-25 22 -39.5 45t-22 46.5t-10 47t-2.5 47.5q0 29 4.5 58t14.5 55t26 48 t39 38l-10 10q-25 22 -39.5 45.5t-22 46.5t-10 47t-2.5 48v145q0 44 10.5 86t35 74.5t65.5 52.5t102 20q57 0 96.5 -18t64.5 -48t37.5 -68.5t14.5 -80.5q3 -3 4.5 -8t1.5 -10q0 -11 -8 -19t-19 -8t-18.5 8t-7.5 19q0 10 6 16q-2 33 -11.5 64.5t-30 56.5t-52.5 40t-78 15 q-49 0 -82.5 -17t-53.5 -44t-29 -61.5t-9 -69.5v-145q2 -51 15 -91t48 -71l242 -213q54 -50 71 -103t17 -104q0 -59 -18.5 -111t-63.5 -86q49 -47 65.5 -98t16.5 -100v-179q0 -44 -10.5 -84.5t-35.5 -72.5t-65.5 -51t-101.5 -19q-57 0 -96.5 17t-64.5 46t-37.5 66.5 t-14.5 79.5q-3 3 -4.5 8t-1.5 10zM119 823q2 -51 14 -91t47 -70l217 -193q39 28 55.5 73t16.5 95q0 53 -20 100t-58 82l-196 174q-44 -28 -60 -74t-16 -96z" />
<glyph unicode="&#xa8;" horiz-adv-x="508" d="M113 1254q0 10 6 16v59q-6 10 -6 19q0 11 7.5 18.5t18.5 7.5t19 -7.5t8 -18.5q0 -9 -6 -19v-59q6 -6 6 -16q0 -11 -8 -19t-19 -8t-18.5 8t-7.5 19zM344 1254q0 10 6 16v59q-6 10 -6 19q0 11 8 18.5t19 7.5t18.5 -7.5t7.5 -18.5q0 -9 -6 -19v-59q6 -6 6 -16 q0 -11 -7.5 -19t-18.5 -8t-19 8t-8 19z" />
<glyph unicode="&#xa9;" horiz-adv-x="948" d="M82 408v616q0 81 19.5 158t65 137.5t121 97.5t187.5 37q109 0 184 -37t121.5 -97.5t67 -137.5t20.5 -158v-616q0 -81 -20.5 -158t-67 -138t-121.5 -98t-184 -37q-112 0 -187.5 37t-121 98t-65 138t-19.5 158zM123 410q0 -71 17.5 -141t58 -126t107.5 -90.5t167 -34.5 q101 0 169 34.5t109 90.5t58.5 126t17.5 141v612q0 70 -17.5 140t-58.5 126t-109 90.5t-169 34.5q-100 0 -167 -34.5t-107.5 -90.5t-58 -126t-17.5 -140v-612zM262 420v594q0 43 10.5 85.5t35 75.5t65 53.5t100.5 20.5q57 0 96.5 -18t64.5 -48t37.5 -68.5t14.5 -80.5 q3 -3 4.5 -8t1.5 -10q0 -9 -7.5 -17t-18.5 -8t-19 8t-8 17q0 10 6 16q-2 33 -11.5 64.5t-30 56.5t-52.5 40t-78 15q-48 0 -81 -17t-52.5 -44.5t-28 -62.5t-8.5 -70v-594q0 -36 8.5 -71t28 -62.5t52.5 -44.5t81 -17q46 0 78 14.5t52.5 38.5t30 55.5t11.5 65.5q-3 3 -4.5 8.5 t-1.5 10.5q0 9 8 16.5t19 7.5t18.5 -7.5t7.5 -16.5q0 -5 -1.5 -10.5t-4.5 -8.5q-2 -41 -14.5 -80t-37.5 -69t-64.5 -48t-96.5 -18q-60 0 -100.5 20.5t-65 53.5t-35 75.5t-10.5 86.5z" />
<glyph unicode="&#xaa;" horiz-adv-x="420" d="M66 1313q0 5 1.5 10t4.5 8q1 22 10 44t25.5 39.5t41 28.5t56.5 11q37 0 62.5 -12.5t40.5 -33t21.5 -46.5t6.5 -53v-445q6 -6 6 -16q0 -11 -8 -19t-19 -8t-18.5 8t-7.5 19q0 10 6 16v23q-12 -28 -34 -47t-64 -19q-63 0 -94 41.5t-31 104.5v104q0 27 5.5 53t23 47t49 33.5 t83.5 12.5h62v92q0 19 -4.5 37.5t-15 33.5t-28 24t-42.5 9q-45 0 -67 -23.5t-25 -60.5q6 -6 6 -16t-8 -17.5t-19 -7.5t-18.5 7.5t-7.5 17.5zM113 967q0 -20 3.5 -38.5t13 -33.5t26.5 -24t43 -9q21 0 38.5 8.5t29.5 23t19 32.5t9 37v213h-62q-39 0 -62.5 -9t-36.5 -24 t-17 -34t-4 -38v-104z" />
<glyph unicode="&#xab;" horiz-adv-x="752" d="M47 502q0 9 7 16.5t18 9.5l340 338q0 10 7.5 17.5t18.5 7.5t19 -8t8 -19t-8 -18.5t-19 -7.5l-338 -336l340 -336q10 -2 17.5 -9.5t7.5 -17.5q0 -11 -8 -18.5t-19 -7.5t-18.5 7.5t-7.5 18.5l-338 336q-11 0 -19 8t-8 19zM252 502q0 9 7 16.5t18 9.5l340 338q0 10 7.5 17.5 t18.5 7.5t19 -8t8 -19t-8 -18.5t-19 -7.5l-338 -336l340 -336q10 -2 17.5 -9.5t7.5 -17.5q0 -11 -8 -18.5t-19 -7.5t-18.5 7.5t-7.5 18.5l-338 336q-11 0 -19 8t-8 19z" />
<glyph unicode="&#xac;" horiz-adv-x="676" d="M74 756q0 11 7.5 18.5t18.5 7.5t17 -6h426q9 6 18 6q11 0 19 -7.5t8 -18.5q0 -7 -4 -15v-231q6 -6 6 -16q0 -11 -8 -19t-19 -8t-18.5 8t-7.5 19q0 10 6 16v225h-426q-6 -6 -17 -6t-18.5 8t-7.5 19z" />
<glyph unicode="&#xad;" horiz-adv-x="618" d="M51 596q0 11 8 19t19 8q10 0 16 -7h426q8 7 19 7t18.5 -8t7.5 -19t-7.5 -19t-18.5 -8q-10 0 -19 6h-426q-6 -6 -16 -6q-11 0 -19 8t-8 19z" />
<glyph unicode="&#xae;" horiz-adv-x="948" d="M82 408v616q0 81 19.5 158t65 137.5t121 97.5t187.5 37q109 0 184 -37t121.5 -97.5t67 -137.5t20.5 -158v-616q0 -81 -20.5 -158t-67 -138t-121.5 -98t-184 -37q-112 0 -187.5 37t-121 98t-65 138t-19.5 158zM123 410q0 -71 17.5 -141t58 -126t107.5 -90.5t167 -34.5 q101 0 169 34.5t109 90.5t58.5 126t17.5 141v612q0 70 -17.5 140t-58.5 126t-109 90.5t-169 34.5q-100 0 -167 -34.5t-107.5 -90.5t-58 -126t-17.5 -140v-612zM287 211q0 10 6 16v1022h190q54 0 91 -18t59.5 -48t32.5 -68.5t10 -78.5v-329q0 -36 -7.5 -69t-24.5 -60.5 t-44.5 -47t-67.5 -26.5l132 -268q6 -4 11 -10.5t5 -14.5q0 -11 -8 -19t-19 -8t-18.5 8t-7.5 19v6l-140 283h-4h-149v-273q6 -6 6 -16q0 -11 -8 -19t-19 -8t-18.5 8t-7.5 19zM334 541h149q42 0 71 14t47 37t26 53t8 62v329q0 31 -7.5 62t-25.5 55.5t-47 39.5t-72 15h-149 v-667z" />
<glyph unicode="&#xaf;" horiz-adv-x="586" d="M82 1368q0 11 8 19t19 8q10 0 16 -6h334q9 6 18 6q11 0 19 -8t8 -19t-8 -19t-19 -8q-10 0 -18 7h-334q-6 -7 -16 -7q-11 0 -19 8t-8 19z" />
<glyph unicode="&#xb0;" horiz-adv-x="416" d="M76 969v342q0 26 6.5 51.5t22 46t40.5 33t62 12.5t62 -12.5t41 -33t23 -46t7 -51.5v-342q0 -26 -7 -52t-23 -46.5t-41 -33t-62 -12.5t-62 12.5t-40.5 33t-22 46.5t-6.5 52zM117 969q0 -18 4 -36.5t14.5 -33.5t28 -24t43.5 -9t43.5 9t28.5 24t15.5 33.5t4.5 36.5v342 q0 18 -4.5 36.5t-15.5 33t-28.5 23.5t-43.5 9t-43.5 -9t-28 -23.5t-14.5 -33t-4 -36.5v-342z" />
<glyph unicode="&#xb1;" horiz-adv-x="737" d="M76 285q0 11 8 19t19 8q10 0 16 -7h498q8 7 18 7q11 0 19 -8t8 -19t-8 -19t-19 -8q-9 0 -18 6h-498q-6 -6 -16 -6q-11 0 -19 8t-8 19zM76 551q0 11 8 19t19 8q10 0 16 -7h229v226q-6 9 -6 18q0 11 8 19t19 8t18.5 -8t7.5 -19q0 -9 -6 -18v-226h228q8 7 18 7q11 0 19 -8 t8 -19t-8 -19t-19 -8q-9 0 -18 6h-228v-129q6 -6 6 -16q0 -11 -7.5 -19t-18.5 -8t-19 8t-8 19q0 10 6 16v129h-229q-6 -6 -16 -6q-11 0 -19 8t-8 19z" />
<glyph unicode="&#xb2;" horiz-adv-x="369" d="M63 1313q0 11 7 18q1 18 7.5 39t20 40t35 31.5t53.5 12.5q31 0 52 -10.5t34 -28.5t19 -43t6 -53v-72q0 -57 -47 -98l-105 -92q-15 -13 -20.5 -30t-5.5 -42v-108h131q9 6 18 6q11 0 19 -8t8 -19t-8 -19t-19 -8q-10 0 -18 7h-170v170q0 24 11 46t30 38l102 92 q14 12 23.5 30.5t9.5 44.5v62q0 42 -15.5 68t-54.5 26q-21 0 -35 -7t-22.5 -19t-12.5 -27t-5 -31q6 -6 6 -16t-9 -17.5t-18 -7.5q-11 0 -19 7.5t-8 17.5z" />
<glyph unicode="&#xb3;" horiz-adv-x="406" d="M59 1313q0 5 1.5 10t5.5 8q0 53 36.5 88t98.5 35q57 0 93 -32.5t36 -86.5q0 -37 -11.5 -58.5t-31.5 -35.5q28 -11 35.5 -31t7.5 -45v-196q0 -26 -7 -52t-23 -46.5t-41 -33t-62 -12.5q-36 0 -60.5 12t-39 30t-21.5 39.5t-8 41.5q-4 3 -5.5 8.5t-1.5 10.5q0 9 8 16.5 t19 7.5q9 0 18 -6.5t9 -17.5t-6 -17q1 -32 22 -58t66 -26q26 0 43.5 9t28.5 24t15.5 33.5t4.5 36.5v196q0 20 -13.5 38t-48.5 18h-28q-3 -5 -8.5 -7t-10.5 -2q-11 0 -18.5 8t-7.5 19t7.5 19t18.5 8q5 0 10.5 -2.5t8.5 -6.5h28q18 0 29.5 7t19 18t10.5 25t3 28q0 13 -5 27 t-16 25t-27.5 18.5t-39.5 7.5q-38 0 -66.5 -22t-28.5 -62q7 -6 7 -16t-9 -17.5t-18 -7.5q-11 0 -19 7.5t-8 17.5z" />
<glyph unicode="&#xb4;" horiz-adv-x="451" d="M82 1194q0 9 6.5 17t17.5 10l209 209q0 9 8 16.5t19 7.5t19 -8t8 -19t-8 -18.5t-19 -7.5l-207 -207q0 -11 -7.5 -19t-18.5 -8t-19 8t-8 19z" />
<glyph unicode="&#xb6;" horiz-adv-x="752" d="M59 1018v182q0 44 10.5 86t35.5 75t66 53t101 20h220v-1411q6 -8 6 -17q0 -11 -8 -18.5t-19 -7.5t-19 7.5t-8 18.5q0 10 7 17v768h-179q-60 0 -101 19t-66 50.5t-35.5 72.5t-10.5 85zM100 1018q0 -36 8.5 -69.5t28.5 -60t53 -42t82 -15.5h179v562h-179q-49 0 -82 -17 t-53 -44.5t-28.5 -62t-8.5 -69.5v-182zM592 6q0 9 6 17v1386q-6 9 -6 18q0 11 7.5 19t18.5 8t19 -8t8 -19q0 -9 -6 -18v-1386q6 -8 6 -17q0 -11 -8 -18.5t-19 -7.5t-18.5 7.5t-7.5 18.5z" />
<glyph unicode="&#xb7;" horiz-adv-x="238" d="M72 840q0 20 11.5 33.5t33.5 13.5q23 0 35 -13.5t12 -33.5q0 -19 -12 -32t-35 -13q-22 0 -33.5 13t-11.5 32z" />
<glyph unicode="&#xb8;" horiz-adv-x="469" d="M82 -365q0 11 8 19t19 8q10 0 16 -6h119q18 0 36.5 4t33 14.5t23.5 28t9 43.5v33q0 26 -9 43t-23.5 27.5t-33 15t-36.5 4.5h-58v41v90h41v-90h17q26 0 51.5 -6.5t46 -22t33 -40.5t12.5 -62v-33q0 -37 -12.5 -62t-33 -40.5t-46 -22t-51.5 -6.5h-119q-6 -6 -16 -6 q-11 0 -19 7.5t-8 18.5z" />
<glyph unicode="&#xb9;" horiz-adv-x="322" d="M20 1278q0 9 7 17t18 10l148 149h40v-596q7 -6 7 -16q0 -11 -8 -19t-19 -8t-19 8t-8 19q0 10 7 16v541l-119 -121q0 -11 -8 -19t-19 -8t-19 8t-8 19z" />
<glyph unicode="&#xba;" horiz-adv-x="416" d="M76 969v342q0 26 6.5 51.5t22 46t40.5 33t62 12.5t62 -12.5t41 -33t23 -46t7 -51.5v-342q0 -26 -7 -52t-23 -46.5t-41 -33t-62 -12.5t-62 12.5t-40.5 33t-22 46.5t-6.5 52zM117 969q0 -18 4 -36.5t14.5 -33.5t28 -24t43.5 -9t43.5 9t28.5 24t15.5 33.5t4.5 36.5v342 q0 18 -4.5 36.5t-15.5 33t-28.5 23.5t-43.5 9t-43.5 -9t-28 -23.5t-14.5 -33t-4 -36.5v-342z" />
<glyph unicode="&#xbb;" horiz-adv-x="752" d="M82 139q0 -11 8 -18.5t19 -7.5t18.5 7.5t7.5 18.5l338 336q11 0 19 8t8 19q0 9 -7 16.5t-18 9.5l-340 338q0 10 -7.5 17.5t-18.5 7.5t-19 -8t-8 -19t8 -18.5t19 -7.5l338 -336l-340 -336q-10 -2 -17.5 -9.5t-7.5 -17.5zM287 139q0 -11 8 -18.5t19 -7.5t18.5 7.5t7.5 18.5 l338 336q11 0 19 8t8 19q0 9 -7 16.5t-18 9.5l-340 338q0 10 -7.5 17.5t-18.5 7.5t-19 -8t-8 -19t8 -18.5t19 -7.5l338 -336l-340 -336q-10 -2 -17.5 -9.5t-7.5 -17.5z" />
<glyph unicode="&#xbc;" horiz-adv-x="817" d="M45 1278q0 9 7 17t18 10l148 149h40v-596q7 -6 7 -16q0 -11 -8 -19t-19 -8t-19 8t-8 19q0 10 7 16v541l-119 -121q0 -11 -8 -19t-19 -8t-19 8t-8 19zM207 6q0 14 12 23l365 1386q-2 4 -2 12q0 11 7.5 19t18.5 8t19 -8t8 -19q0 -8 -4 -14.5t-12 -9.5l-363 -1385 q4 -8 4 -12q0 -11 -7.5 -18.5t-18.5 -7.5t-19 7.5t-8 18.5zM486 373v41l165 192v2q0 11 8 19t19 8t19 -8t8 -19q0 -9 -6 -18v-176h16q9 6 18 6q11 0 19 -8t8 -19t-8 -18.5t-19 -7.5q-9 0 -18 6h-16v-348q6 -6 6 -17t-8 -18.5t-19 -7.5t-19 7.5t-8 18.5q0 10 7 17v348h-172z M535 414h123v141z" />
<glyph unicode="&#xbd;" horiz-adv-x="846" d="M45 1278q0 9 7 17t18 10l148 149h40v-596q7 -6 7 -16q0 -11 -8 -19t-19 -8t-19 8t-8 19q0 10 7 16v541l-119 -121q0 -11 -8 -19t-19 -8t-19 8t-8 19zM207 6q0 14 12 23l365 1386q-2 4 -2 12q0 11 7.5 19t18.5 8t19 -8t8 -19q0 -8 -4 -14.5t-12 -9.5l-363 -1385 q4 -8 4 -12q0 -11 -7.5 -18.5t-18.5 -7.5t-19 7.5t-8 18.5zM540 479q0 11 7 18q1 18 7.5 39t20 40t35 31.5t53.5 12.5q31 0 52 -10.5t34 -28.5t19 -43t6 -53v-72q0 -57 -47 -98l-105 -92q-15 -13 -20.5 -30t-5.5 -42v-108h131q9 6 18 6q11 0 19 -8t8 -19t-8 -19t-19 -8 q-10 0 -18 7h-170v170q0 24 11 46t30 38l102 92q14 12 23.5 30.5t9.5 44.5v62q0 42 -15.5 68t-54.5 26q-21 0 -35 -7t-22.5 -19t-12.5 -27t-5 -31q6 -6 6 -16t-9 -17.5t-18 -7.5q-11 0 -19 7.5t-8 17.5z" />
<glyph unicode="&#xbe;" horiz-adv-x="866" d="M61 1313q0 5 1.5 10t5.5 8q0 53 36.5 88t98.5 35q57 0 93 -32.5t36 -86.5q0 -37 -11.5 -58.5t-31.5 -35.5q28 -11 35.5 -31t7.5 -45v-196q0 -26 -7 -52t-23 -46.5t-41 -33t-62 -12.5q-36 0 -60.5 12t-39 30t-21.5 39.5t-8 41.5q-4 3 -5.5 8.5t-1.5 10.5q0 9 8 16.5 t19 7.5q9 0 18 -6.5t9 -17.5t-6 -17q1 -32 22 -58t66 -26q26 0 43.5 9t28.5 24t15.5 33.5t4.5 36.5v196q0 20 -13.5 38t-48.5 18h-28q-3 -5 -8.5 -7t-10.5 -2q-11 0 -18.5 8t-7.5 19t7.5 19t18.5 8q5 0 10.5 -2.5t8.5 -6.5h28q18 0 29.5 7t19 18t10.5 25t3 28q0 13 -5 27 t-16 25t-27.5 18.5t-39.5 7.5q-38 0 -66.5 -22t-28.5 -62q7 -6 7 -16t-9 -17.5t-18 -7.5q-11 0 -19 7.5t-8 17.5zM262 6q0 14 12 23l365 1386q-2 4 -2 12q0 11 7.5 19t18.5 8t19 -8t8 -19q0 -8 -4 -14.5t-12 -9.5l-363 -1385q4 -8 4 -12q0 -11 -7.5 -18.5t-18.5 -7.5 t-19 7.5t-8 18.5zM541 373v41l165 192v2q0 11 8 19t19 8t19 -8t8 -19q0 -9 -6 -18v-176h16q9 6 18 6q11 0 19 -8t8 -19t-8 -18.5t-19 -7.5q-9 0 -18 6h-16v-348q6 -6 6 -17t-8 -18.5t-19 -7.5t-19 7.5t-8 18.5q0 10 7 17v348h-172zM590 414h123v141z" />
<glyph unicode="&#xbf;" horiz-adv-x="555" d="M72 213v142q0 24 2.5 47.5t10 47t22 46.5t38.5 45l41 37q39 35 58.5 82.5t19.5 99.5v365q-6 6 -6 16q0 11 8 19t19 8t18.5 -8t7.5 -19q0 -10 -6 -16v-365q0 -51 -17 -104t-71 -103l-43 -37q-35 -30 -47 -70t-14 -91v-142q0 -35 8.5 -69.5t28.5 -61.5t53 -44t82 -17 q46 0 78 15t52.5 40t30.5 56.5t11 64.5q-6 6 -6 16q0 11 7.5 19t18.5 8t19 -8t8 -19q0 -5 -1.5 -10t-4.5 -8q-2 -42 -14.5 -80.5t-37.5 -68.5t-64.5 -48t-96.5 -18q-61 0 -101.5 20t-65.5 53t-35.5 75t-10.5 85zM237 1409q0 19 12 32t35 13q22 0 33.5 -13t11.5 -32 q0 -20 -11.5 -33.5t-33.5 -13.5q-23 0 -35 13.5t-12 33.5z" />
<glyph unicode="&#xc0;" d="M80 6q0 9 6 17v1177q0 44 10 86t35 75t66.5 53t103.5 20h211v-1411q6 -8 6 -17q0 -11 -7.5 -18.5t-18.5 -7.5t-19 7.5t-8 18.5q0 9 6 17v960h-344v-960q6 -8 6 -17q0 -11 -8 -18.5t-19 -7.5t-18.5 7.5t-7.5 18.5zM127 1024h344v369h-170q-51 0 -84.5 -17t-53.5 -44.5 t-28 -62t-8 -69.5v-176zM137 1789q0 11 8 19t19 8q9 0 16.5 -7.5t9.5 -16.5l209 -209q9 -2 17 -10t8 -17q0 -11 -8 -19t-19 -8t-19 8t-8 19l-206 207q-11 0 -19 7.5t-8 18.5z" />
<glyph unicode="&#xc1;" d="M80 6q0 9 6 17v1177q0 44 10 86t35 75t66.5 53t103.5 20h211v-1411q6 -8 6 -17q0 -11 -7.5 -18.5t-18.5 -7.5t-19 7.5t-8 18.5q0 9 6 17v960h-344v-960q6 -8 6 -17q0 -11 -8 -18.5t-19 -7.5t-18.5 7.5t-7.5 18.5zM127 1024h344v369h-170q-51 0 -84.5 -17t-53.5 -44.5 t-28 -62t-8 -69.5v-176zM219 1561q0 9 6.5 17t17.5 10l209 209q0 9 8 16.5t19 7.5t19 -8t8 -19t-8 -18.5t-19 -7.5l-207 -207q0 -11 -7.5 -19t-18.5 -8t-19 8t-8 19z" />
<glyph unicode="&#xc2;" d="M58 1559q0 9 7 17t18 10l209 209q0 9 8 16.5t19 7.5q9 0 16.5 -7.5t9.5 -16.5l209 -209q9 -2 17 -10t8 -17q0 -11 -8 -19t-19 -8t-19 8t-8 19l-206 207l-207 -207q0 -11 -8 -19t-19 -8t-19 8t-8 19zM77 6q0 9 6 17v1177q0 44 10 86t35 75t66.5 53t103.5 20h211v-1411 q6 -8 6 -17q0 -11 -7.5 -18.5t-18.5 -7.5t-19 7.5t-8 18.5q0 9 6 17v960h-344v-960q6 -8 6 -17q0 -11 -8 -18.5t-19 -7.5t-18.5 7.5t-7.5 18.5zM124 1024h344v369h-170q-51 0 -84.5 -17t-53.5 -44.5t-28 -62t-8 -69.5v-176z" />
<glyph unicode="&#xc3;" d="M80 6q0 9 6 17v1177q0 44 10 86t35 75t66.5 53t103.5 20h211v-1411q6 -8 6 -17q0 -11 -7.5 -18.5t-18.5 -7.5t-19 7.5t-8 18.5q0 9 6 17v960h-344v-960q6 -8 6 -17q0 -11 -8 -18.5t-19 -7.5t-18.5 7.5t-7.5 18.5zM82 1613q0 14 8 19v14q0 34 9.5 56t25.5 35t36 18.5 t40 5.5q25 0 44.5 -10t35.5 -24.5t30 -32t28.5 -32t29.5 -24.5t34 -10q28 0 49 14.5t21 58.5v15q-6 9 -6 18q0 11 8 19t19 8t18.5 -8t7.5 -19q0 -7 -2.5 -11.5t-5.5 -8.5v-13q0 -32 -9 -54t-24 -35.5t-35.5 -19t-42.5 -5.5q-25 0 -45 10t-36 24.5t-30 32t-28 32t-29 24.5 t-34 10q-28 0 -49 -15t-21 -59v-16q6 -6 6 -17t-7.5 -18.5t-18.5 -7.5t-19 7.5t-8 18.5zM127 1024h344v369h-170q-51 0 -84.5 -17t-53.5 -44.5t-28 -62t-8 -69.5v-176z" />
<glyph unicode="&#xc4;" d="M80 6q0 9 6 17v1177q0 44 10 86t35 75t66.5 53t103.5 20h211v-1411q6 -8 6 -17q0 -11 -7.5 -18.5t-18.5 -7.5t-19 7.5t-8 18.5q0 9 6 17v960h-344v-960q6 -8 6 -17q0 -11 -8 -18.5t-19 -7.5t-18.5 7.5t-7.5 18.5zM127 1024h344v369h-170q-51 0 -84.5 -17t-53.5 -44.5 t-28 -62t-8 -69.5v-176zM157 1628q0 10 6 16v59q-6 10 -6 19q0 11 7.5 18.5t18.5 7.5t19 -7.5t8 -18.5q0 -9 -6 -19v-59q6 -6 6 -16q0 -11 -8 -19t-19 -8t-18.5 8t-7.5 19zM388 1628q0 10 6 16v59q-6 10 -6 19q0 11 8 18.5t19 7.5t18.5 -7.5t7.5 -18.5q0 -9 -6 -19v-59 q6 -6 6 -16q0 -11 -7.5 -19t-18.5 -8t-19 8t-8 19z" />
<glyph unicode="&#xc5;" d="M80 6q0 9 6 17v1177q0 44 10 86t35 75t66.5 53t103.5 20h211v-1411q6 -8 6 -17q0 -11 -7.5 -18.5t-18.5 -7.5t-19 7.5t-8 18.5q0 9 6 17v960h-344v-960q6 -8 6 -17q0 -11 -8 -18.5t-19 -7.5t-18.5 7.5t-7.5 18.5zM127 1024h344v369h-170q-51 0 -84.5 -17t-53.5 -44.5 t-28 -62t-8 -69.5v-176zM172 1672v10q0 24 6.5 48.5t21.5 44t39.5 32t59.5 12.5q37 0 61.5 -12.5t39 -32t20.5 -44t6 -58.5q0 -26 -6 -51.5t-20.5 -45t-39 -31.5t-61.5 -12q-35 0 -59.5 12t-39.5 31.5t-21.5 45t-6.5 51.5zM213 1672q0 -18 4 -35.5t14 -31.5t26.5 -23 t41.5 -9t41 9q17 9 27 23t14 31.5t4 35.5q0 26 -4 43t-14 31t-26.5 23t-41.5 9t-41.5 -9t-26.5 -23t-14 -31t-4 -43z" />
<glyph unicode="&#xc6;" horiz-adv-x="930" d="M80 6q0 9 6 17v1177q0 44 10 86t35 75t66.5 53t103.5 20h551q9 6 18 6q11 0 19 -8t8 -19t-8 -19t-19 -8q-8 0 -18 7h-340v-369h281q9 6 18 6q11 0 19 -7.5t8 -18.5t-8 -19t-19 -8q-9 0 -18 6h-281v-942h340q9 6 18 6q11 0 19 -8t8 -19t-8 -18.5t-19 -7.5q-9 0 -18 6h-381 v983h-344v-960q6 -8 6 -17q0 -11 -8 -18.5t-19 -7.5t-18.5 7.5t-7.5 18.5zM127 1024h344v369h-170q-51 0 -84.5 -17t-53.5 -44.5t-28 -62t-8 -69.5v-176z" />
<glyph unicode="&#xc7;" horiz-adv-x="539" d="M82 207v1014q0 43 10.5 85t35 75t65.5 53t102 20q57 0 96.5 -18t64.5 -48t37.5 -68.5t14.5 -80.5q3 -3 4.5 -8t1.5 -10q0 -11 -8 -19t-19 -8t-18.5 8t-7.5 19q0 10 6 16q-2 33 -11.5 64.5t-30 56.5t-52.5 40t-78 15q-49 0 -82 -17t-53 -44t-28.5 -61.5t-8.5 -69.5v-1014 q0 -36 8.5 -69.5t28.5 -60t53 -42t82 -15.5q46 0 78 13.5t52.5 36.5t30 53.5t11.5 64.5q-3 4 -4.5 9t-1.5 10q0 11 7.5 18.5t18.5 7.5t19 -7.5t8 -18.5q0 -5 -1.5 -10t-4.5 -9q-2 -41 -14.5 -79t-37.5 -66.5t-65 -45.5q-31 -13 -74 -16v-71h17q26 0 51.5 -6.5t46 -22 t33 -40.5t12.5 -62v-33q0 -37 -12.5 -62t-33 -40.5t-46 -22t-51.5 -6.5h-119q-6 -6 -16 -6q-11 0 -19 7.5t-8 18.5t8 19t19 8q10 0 16 -6h119q18 0 36.5 4t33 14.5t23.5 28t9 43.5v33q0 26 -9 43t-23.5 27.5t-33 15t-36.5 4.5h-58v112q-49 2 -83 18q-41 19 -65.5 50.5 t-35 72.5t-10.5 85z" />
<glyph unicode="&#xc8;" horiz-adv-x="547" d="M86 0v1202q0 44 10 85.5t35 74t66.5 52.5t103.5 20h166q9 6 18 6q11 0 19 -8t8 -19t-8 -19t-19 -8q-8 0 -18 7h-166q-51 0 -84.5 -16.5t-53.5 -43.5t-28 -61.5t-8 -69.5v-178h281q9 6 18 6q11 0 19 -7.5t8 -18.5t-8 -19t-19 -8q-9 0 -18 6h-281v-942h340q9 6 18 6 q11 0 19 -8t8 -19t-8 -18.5t-19 -7.5q-9 0 -18 6h-381zM156 1792q0 11 8 19t19 8q9 0 16.5 -7.5t9.5 -16.5l209 -209q9 -2 17 -10t8 -17q0 -11 -8 -19t-19 -8t-19 8t-8 19l-206 207q-11 0 -19 7.5t-8 18.5z" />
<glyph unicode="&#xc9;" horiz-adv-x="547" d="M86 0v1202q0 44 10 85.5t35 74t66.5 52.5t103.5 20h166q9 6 18 6q11 0 19 -8t8 -19t-8 -19t-19 -8q-8 0 -18 7h-166q-51 0 -84.5 -16.5t-53.5 -43.5t-28 -61.5t-8 -69.5v-178h281q9 6 18 6q11 0 19 -7.5t8 -18.5t-8 -19t-19 -8q-9 0 -18 6h-281v-942h340q9 6 18 6 q11 0 19 -8t8 -19t-8 -18.5t-19 -7.5q-9 0 -18 6h-381zM217 1559q0 9 6.5 17t17.5 10l209 209q0 9 8 16.5t19 7.5t19 -8t8 -19t-8 -18.5t-19 -7.5l-207 -207q0 -11 -7.5 -19t-18.5 -8t-19 8t-8 19z" />
<glyph unicode="&#xca;" horiz-adv-x="547" d="M58 1559q0 9 7 17t18 10l209 209q0 9 8 16.5t19 7.5q9 0 16.5 -7.5t9.5 -16.5l209 -209q9 -2 17 -10t8 -17q0 -11 -8 -19t-19 -8t-19 8t-8 19l-206 207l-207 -207q0 -11 -8 -19t-19 -8t-19 8t-8 19zM86 0v1202q0 44 10 85.5t35 74t66.5 52.5t103.5 20h166q9 6 18 6 q11 0 19 -8t8 -19t-8 -19t-19 -8q-8 0 -18 7h-166q-51 0 -84.5 -16.5t-53.5 -43.5t-28 -61.5t-8 -69.5v-178h281q9 6 18 6q11 0 19 -7.5t8 -18.5t-8 -19t-19 -8q-9 0 -18 6h-281v-942h340q9 6 18 6q11 0 19 -8t8 -19t-8 -18.5t-19 -7.5q-9 0 -18 6h-381z" />
<glyph unicode="&#xcb;" horiz-adv-x="547" d="M86 0v1202q0 44 10 85.5t35 74t66.5 52.5t103.5 20h166q9 6 18 6q11 0 19 -8t8 -19t-8 -19t-19 -8q-8 0 -18 7h-166q-51 0 -84.5 -16.5t-53.5 -43.5t-28 -61.5t-8 -69.5v-178h281q9 6 18 6q11 0 19 -7.5t8 -18.5t-8 -19t-19 -8q-9 0 -18 6h-281v-942h340q9 6 18 6 q11 0 19 -8t8 -19t-8 -18.5t-19 -7.5q-9 0 -18 6h-381zM158 1627q0 10 6 16v59q-6 10 -6 19q0 11 7.5 18.5t18.5 7.5t19 -7.5t8 -18.5q0 -9 -6 -19v-59q6 -6 6 -16q0 -11 -8 -19t-19 -8t-18.5 8t-7.5 19zM389 1627q0 10 6 16v59q-6 10 -6 19q0 11 8 18.5t19 7.5t18.5 -7.5 t7.5 -18.5q0 -9 -6 -19v-59q6 -6 6 -16q0 -11 -7.5 -19t-18.5 -8t-19 8t-8 19z" />
<glyph unicode="&#xcc;" horiz-adv-x="217" d="M-151 1792q0 11 8 19t19 8q9 0 16.5 -7.5t9.5 -16.5l209 -209q9 -2 17 -10t8 -17q0 -11 -8 -19t-19 -8t-19 8t-8 19l-206 207q-11 0 -19 7.5t-8 18.5zM82 6q0 9 6 17v1386q-6 9 -6 18q0 11 8 19t19 8t18.5 -8t7.5 -19q0 -9 -6 -18v-1386q6 -8 6 -17q0 -11 -7.5 -18.5 t-18.5 -7.5t-19 7.5t-8 18.5z" />
<glyph unicode="&#xcd;" horiz-adv-x="217" d="M82 6q0 9 6 17v1386q-6 9 -6 18q0 11 8 19t19 8t18.5 -8t7.5 -19q0 -9 -6 -18v-1386q6 -8 6 -17q0 -11 -7.5 -18.5t-18.5 -7.5t-19 7.5t-8 18.5zM82 1559q0 9 6.5 17t17.5 10l209 209q0 9 8 16.5t19 7.5t19 -8t8 -19t-8 -18.5t-19 -7.5l-207 -207q0 -11 -7.5 -19 t-18.5 -8t-19 8t-8 19z" />
<glyph unicode="&#xce;" horiz-adv-x="217" d="M-151 1559q0 9 7 17t18 10l209 209q0 9 8 16.5t19 7.5q9 0 16.5 -7.5t9.5 -16.5l209 -209q9 -2 17 -10t8 -17q0 -11 -8 -19t-19 -8t-19 8t-8 19l-206 207l-207 -207q0 -11 -8 -19t-19 -8t-19 8t-8 19zM82 6q0 9 6 17v1386q-6 9 -6 18q0 11 8 19t19 8t18.5 -8t7.5 -19 q0 -9 -6 -18v-1386q6 -8 6 -17q0 -11 -7.5 -18.5t-18.5 -7.5t-19 7.5t-8 18.5z" />
<glyph unicode="&#xcf;" horiz-adv-x="217" d="M-34 1627q0 10 6 16v59q-6 10 -6 19q0 11 7.5 18.5t18.5 7.5t19 -7.5t8 -18.5q0 -9 -6 -19v-59q6 -6 6 -16q0 -11 -8 -19t-19 -8t-18.5 8t-7.5 19zM82 6q0 9 6 17v1386q-6 9 -6 18q0 11 8 19t19 8t18.5 -8t7.5 -19q0 -9 -6 -18v-1386q6 -8 6 -17q0 -11 -7.5 -18.5 t-18.5 -7.5t-19 7.5t-8 18.5zM197 1627q0 10 6 16v59q-6 10 -6 19q0 11 8 18.5t19 7.5t18.5 -7.5t7.5 -18.5q0 -9 -6 -19v-59q6 -6 6 -16q0 -11 -7.5 -19t-18.5 -8t-19 8t-8 19z" />
<glyph unicode="&#xd0;" horiz-adv-x="610" d="M-37 1004q0 11 8 18.5t19 7.5q10 0 16 -6h96v410h211q62 0 103.5 -20t66 -53t35 -75t10.5 -86v-967q0 -44 -10.5 -85.5t-35 -74.5t-66 -53t-103.5 -20h-211v983h-96q-6 -6 -16 -6q-11 0 -19 8t-8 19zM143 41h170q51 0 84.5 17t53.5 44t28 61.5t8 69.5v967q0 35 -8 69.5 t-28 62t-53.5 44.5t-84.5 17h-170v-369h152q9 6 18 6q11 0 19 -7.5t8 -18.5t-8 -19t-19 -8q-9 0 -18 6h-152v-942z" />
<glyph unicode="&#xd1;" horiz-adv-x="602" d="M82 6q0 9 6 17v1386q-6 9 -6 18q0 11 8 19t19 8t18.5 -8t7.5 -19q0 -9 -6 -18v-342l344 367h41v-1411q6 -8 6 -17q0 -11 -7.5 -18.5t-18.5 -7.5t-19 7.5t-8 18.5q0 9 6 17v1353l-344 -366v-987q6 -8 6 -17q0 -11 -7.5 -18.5t-18.5 -7.5t-19 7.5t-8 18.5zM82 1613 q0 14 8 19v14q0 34 9.5 56t25.5 35t36 18.5t40 5.5q25 0 44.5 -10t35.5 -24.5t30 -32t28.5 -32t29.5 -24.5t34 -10q28 0 49 14.5t21 58.5v15q-6 9 -6 18q0 11 8 19t19 8t18.5 -8t7.5 -19q0 -7 -2.5 -11.5t-5.5 -8.5v-13q0 -32 -9 -54t-24 -35.5t-35.5 -19t-42.5 -5.5 q-25 0 -45 10t-36 24.5t-30 32t-28 32t-29 24.5t-34 10q-28 0 -49 -15t-21 -59v-16q6 -6 6 -17t-7.5 -18.5t-18.5 -7.5t-19 7.5t-8 18.5z" />
<glyph unicode="&#xd2;" horiz-adv-x="590" d="M82 207v1014q0 43 10.5 85t35 75t65.5 53t102 20q59 0 100 -20t66 -53t36 -75t11 -85v-1014q0 -44 -11 -85t-36 -72.5t-66 -50.5t-100 -19q-61 0 -102 19t-65.5 50.5t-35 72.5t-10.5 85zM111 1792q0 11 8 19t19 8q9 0 16.5 -7.5t9.5 -16.5l209 -209q9 -2 17 -10t8 -17 q0 -11 -8 -19t-19 -8t-19 8t-8 19l-206 207q-11 0 -19 7.5t-8 18.5zM123 207q0 -36 8.5 -69.5t28.5 -60t53 -42t82 -15.5t82 15.5t53 42t28.5 60t8.5 69.5v1014q0 35 -8.5 69.5t-28.5 61.5t-53 44t-82 17t-82 -17t-53 -44t-28.5 -61.5t-8.5 -69.5v-1014z" />
<glyph unicode="&#xd3;" horiz-adv-x="590" d="M82 207v1014q0 43 10.5 85t35 75t65.5 53t102 20q59 0 100 -20t66 -53t36 -75t11 -85v-1014q0 -44 -11 -85t-36 -72.5t-66 -50.5t-100 -19q-61 0 -102 19t-65.5 50.5t-35 72.5t-10.5 85zM123 207q0 -36 8.5 -69.5t28.5 -60t53 -42t82 -15.5t82 15.5t53 42t28.5 60 t8.5 69.5v1014q0 35 -8.5 69.5t-28.5 61.5t-53 44t-82 17t-82 -17t-53 -44t-28.5 -61.5t-8.5 -69.5v-1014zM234 1559q0 9 6.5 17t17.5 10l209 209q0 9 8 16.5t19 7.5t19 -8t8 -19t-8 -18.5t-19 -7.5l-207 -207q0 -11 -7.5 -19t-18.5 -8t-19 8t-8 19z" />
<glyph unicode="&#xd4;" horiz-adv-x="590" d="M36 1559q0 9 7 17t18 10l209 209q0 9 8 16.5t19 7.5q9 0 16.5 -7.5t9.5 -16.5l209 -209q9 -2 17 -10t8 -17q0 -11 -8 -19t-19 -8t-19 8t-8 19l-206 207l-207 -207q0 -11 -8 -19t-19 -8t-19 8t-8 19zM82 207v1014q0 43 10.5 85t35 75t65.5 53t102 20q59 0 100 -20t66 -53 t36 -75t11 -85v-1014q0 -44 -11 -85t-36 -72.5t-66 -50.5t-100 -19q-61 0 -102 19t-65.5 50.5t-35 72.5t-10.5 85zM123 207q0 -36 8.5 -69.5t28.5 -60t53 -42t82 -15.5t82 15.5t53 42t28.5 60t8.5 69.5v1014q0 35 -8.5 69.5t-28.5 61.5t-53 44t-82 17t-82 -17t-53 -44 t-28.5 -61.5t-8.5 -69.5v-1014z" />
<glyph unicode="&#xd5;" horiz-adv-x="590" d="M77 1613q0 14 8 19v14q0 34 9.5 56t25.5 35t36 18.5t40 5.5q25 0 44.5 -10t35.5 -24.5t30 -32t28.5 -32t29.5 -24.5t34 -10q28 0 49 14.5t21 58.5v15q-6 9 -6 18q0 11 8 19t19 8t18.5 -8t7.5 -19q0 -7 -2.5 -11.5t-5.5 -8.5v-13q0 -32 -9 -54t-24 -35.5t-35.5 -19 t-42.5 -5.5q-25 0 -45 10t-36 24.5t-30 32t-28 32t-29 24.5t-34 10q-28 0 -49 -15t-21 -59v-16q6 -6 6 -17t-7.5 -18.5t-18.5 -7.5t-19 7.5t-8 18.5zM82 207v1014q0 43 10.5 85t35 75t65.5 53t102 20q59 0 100 -20t66 -53t36 -75t11 -85v-1014q0 -44 -11 -85t-36 -72.5 t-66 -50.5t-100 -19q-61 0 -102 19t-65.5 50.5t-35 72.5t-10.5 85zM123 207q0 -36 8.5 -69.5t28.5 -60t53 -42t82 -15.5t82 15.5t53 42t28.5 60t8.5 69.5v1014q0 35 -8.5 69.5t-28.5 61.5t-53 44t-82 17t-82 -17t-53 -44t-28.5 -61.5t-8.5 -69.5v-1014z" />
<glyph unicode="&#xd6;" horiz-adv-x="590" d="M82 207v1014q0 43 10.5 85t35 75t65.5 53t102 20q59 0 100 -20t66 -53t36 -75t11 -85v-1014q0 -44 -11 -85t-36 -72.5t-66 -50.5t-100 -19q-61 0 -102 19t-65.5 50.5t-35 72.5t-10.5 85zM123 207q0 -36 8.5 -69.5t28.5 -60t53 -42t82 -15.5t82 15.5t53 42t28.5 60 t8.5 69.5v1014q0 35 -8.5 69.5t-28.5 61.5t-53 44t-82 17t-82 -17t-53 -44t-28.5 -61.5t-8.5 -69.5v-1014zM154 1627q0 10 6 16v59q-6 10 -6 19q0 11 7.5 18.5t18.5 7.5t19 -7.5t8 -18.5q0 -9 -6 -19v-59q6 -6 6 -16q0 -11 -8 -19t-19 -8t-18.5 8t-7.5 19zM385 1627 q0 10 6 16v59q-6 10 -6 19q0 11 8 18.5t19 7.5t18.5 -7.5t7.5 -18.5q0 -9 -6 -19v-59q6 -6 6 -16q0 -11 -7.5 -19t-18.5 -8t-19 8t-8 19z" />
<glyph unicode="&#xd7;" horiz-adv-x="590" d="M68 362.5q0 10.5 8 18.5q6 6 14 6l164 164l-162 160q-3 2 -7 3.5t-7 4.5q-8 8 -8 18.5t8 18.5t18.5 8t18.5 -8q6 -6 6 -17l162 -159l161 161q2 5 4 9.5t5 7.5q8 8 18.5 8t18.5 -8t8 -19.5t-8 -19.5q-9 -8 -19 -8l-160 -160l164 -166q9 0 17 -6q8 -8 8 -18.5t-8 -18.5 t-18.5 -8t-18.5 8q-3 3 -4.5 7t-3.5 7l-164 166l-162 -162q0 -10 -6 -16q-8 -8 -19.5 -8t-19.5 8t-8 18.5z" />
<glyph unicode="&#xd8;" horiz-adv-x="596" d="M-41 -84q3 15 16 23l107 275v1007q0 43 10.5 85t35 75t65.5 53t102 20q59 0 100 -20t66 -53t36 -75q2 -7 3 -14l86 221q-4 9 -2 13q2 11 10.5 17.5t19.5 4.5q11 0 18 -8.5t5 -19.5q-3 -17 -16 -23l-113 -290v-1000q0 -44 -11 -85t-36 -72.5t-66 -50.5t-100 -19 q-61 0 -102 19t-65.5 50.5t-35.5 72.5q-1 6 -3 11l-81 -209q2 -3 3 -6t1 -8q-2 -11 -10.5 -18t-19.5 -7q-11 2 -18 11t-5 20zM123 207q0 -36 8.5 -69.5t28.5 -60t53 -42t82 -15.5t82 15.5t53 42t28.5 60t8.5 69.5v895l-344 -883v-12zM123 320l344 886v15q0 35 -8.5 69.5 t-28.5 61.5t-53 44t-82 17t-82 -17t-53 -44t-28.5 -61.5t-8.5 -69.5v-901z" />
<glyph unicode="&#xd9;" d="M80 1427q0 11 7.5 19t18.5 8t19 -8t8 -19q0 -9 -6 -18v-1196q0 -35 8.5 -69.5t28.5 -62t53 -44.5t82 -17t82 17t53 44.5t28.5 62t8.5 69.5v1196q-6 9 -6 18q0 11 8 19t19 8t18.5 -8t7.5 -19q0 -9 -6 -18v-1196q0 -44 -11 -86t-36 -74.5t-66 -52.5t-100 -20q-61 0 -102 20 t-65.5 52.5t-35 74.5t-10.5 86v1196q-6 9 -6 18zM135 1792q0 11 8 19t19 8q9 0 16.5 -7.5t9.5 -16.5l209 -209q9 -2 17 -10t8 -17q0 -11 -8 -19t-19 -8t-19 8t-8 19l-206 207q-11 0 -19 7.5t-8 18.5z" />
<glyph unicode="&#xda;" d="M80 1427q0 11 7.5 19t18.5 8t19 -8t8 -19q0 -9 -6 -18v-1196q0 -35 8.5 -69.5t28.5 -62t53 -44.5t82 -17t82 17t53 44.5t28.5 62t8.5 69.5v1196q-6 9 -6 18q0 11 8 19t19 8t18.5 -8t7.5 -19q0 -9 -6 -18v-1196q0 -44 -11 -86t-36 -74.5t-66 -52.5t-100 -20q-61 0 -102 20 t-65.5 52.5t-35 74.5t-10.5 86v1196q-6 9 -6 18zM217 1561q0 9 6.5 17t17.5 10l209 209q0 9 8 16.5t19 7.5t19 -8t8 -19t-8 -18.5t-19 -7.5l-207 -207q0 -11 -7.5 -19t-18.5 -8t-19 8t-8 19z" />
<glyph unicode="&#xdb;" d="M40 1559q0 9 7 17t18 10l209 209q0 9 8 16.5t19 7.5q9 0 16.5 -7.5t9.5 -16.5l209 -209q9 -2 17 -10t8 -17q0 -11 -8 -19t-19 -8t-19 8t-8 19l-206 207l-207 -207q0 -11 -8 -19t-19 -8t-19 8t-8 19zM80 1427q0 11 7.5 19t18.5 8t19 -8t8 -19q0 -9 -6 -18v-1196 q0 -35 8.5 -69.5t28.5 -62t53 -44.5t82 -17t82 17t53 44.5t28.5 62t8.5 69.5v1196q-6 9 -6 18q0 11 8 19t19 8t18.5 -8t7.5 -19q0 -9 -6 -18v-1196q0 -44 -11 -86t-36 -74.5t-66 -52.5t-100 -20q-61 0 -102 20t-65.5 52.5t-35 74.5t-10.5 86v1196q-6 9 -6 18z" />
<glyph unicode="&#xdc;" d="M80 1427q0 11 7.5 19t18.5 8t19 -8t8 -19q0 -9 -6 -18v-1196q0 -35 8.5 -69.5t28.5 -62t53 -44.5t82 -17t82 17t53 44.5t28.5 62t8.5 69.5v1196q-6 9 -6 18q0 11 8 19t19 8t18.5 -8t7.5 -19q0 -9 -6 -18v-1196q0 -44 -11 -86t-36 -74.5t-66 -52.5t-100 -20q-61 0 -102 20 t-65.5 52.5t-35 74.5t-10.5 86v1196q-6 9 -6 18zM158 1627q0 10 6 16v59q-6 10 -6 19q0 11 7.5 18.5t18.5 7.5t19 -7.5t8 -18.5q0 -9 -6 -19v-59q6 -6 6 -16q0 -11 -8 -19t-19 -8t-18.5 8t-7.5 19zM389 1627q0 10 6 16v59q-6 10 -6 19q0 11 8 18.5t19 7.5t18.5 -7.5 t7.5 -18.5q0 -9 -6 -19v-59q6 -6 6 -16q0 -11 -7.5 -19t-18.5 -8t-19 8t-8 19z" />
<glyph unicode="&#xdd;" horiz-adv-x="502" d="M8 1427q0 11 8 19t19 8t18.5 -8t7.5 -19q0 -6 -2 -10l189 -344h6l188 344v10q0 11 8 19t19 8t19 -8t8 -19q0 -9 -5.5 -15t-11.5 -9l-207 -379v-1001q7 -9 7 -17q0 -11 -8 -18.5t-19 -7.5t-19 7.5t-8 18.5q0 9 6 17v1001l-206 379q-17 6 -17 24zM150 1559q0 9 6.5 17 t17.5 10l209 209q0 9 8 16.5t19 7.5t19 -8t8 -19t-8 -18.5t-19 -7.5l-207 -207q0 -11 -7.5 -19t-18.5 -8t-19 8t-8 19z" />
<glyph unicode="&#xde;" horiz-adv-x="561" d="M82 6q0 9 6 17v1386q-6 9 -6 18q0 11 8 19t19 8t18.5 -8t7.5 -19q0 -9 -6 -18v-170h178q61 0 101.5 -20t65.5 -53t35.5 -75t10.5 -85v-369q0 -44 -10.5 -85t-35.5 -72.5t-65.5 -50.5t-101.5 -19h-178v-387q6 -8 6 -17q0 -11 -7.5 -18.5t-18.5 -7.5t-19 7.5t-8 18.5z M129 451h178q49 0 82 15.5t53 41.5t28.5 59.5t8.5 69.5v369q0 35 -8.5 69.5t-28.5 61.5t-53 44t-82 17h-178v-747z" />
<glyph unicode="&#xdf;" horiz-adv-x="578" d="M76 6q0 9 6 17v1198q0 43 10.5 85t35 75t65.5 53t102 20q59 0 100 -20t66 -53t36 -75t11 -85q0 -33 -5.5 -66.5t-19.5 -62.5t-37 -52t-57 -36q33 -15 55.5 -37t37 -49.5t20.5 -60t6 -66.5v-570q0 -105 -54.5 -163t-160.5 -58h-41q-6 -6 -16 -6q-11 0 -19 7.5t-8 18.5 t8 19t19 8q10 0 16 -6h41q87 0 130.5 48.5t43.5 133.5v568q0 36 -8.5 70.5t-29 61.5t-55 43.5t-85.5 16.5h-37q-6 -6 -16 -6q-11 0 -19 8t-8 19t8 18.5t19 7.5q10 0 16 -6h55q49 0 80 17t49 45t24.5 63.5t6.5 71.5q0 35 -8.5 69.5t-28.5 61.5t-53 44t-82 17t-82 -17t-53 -44 t-28.5 -61.5t-8.5 -69.5v-1198q6 -8 6 -17q0 -11 -8 -18.5t-19 -7.5t-18.5 7.5t-7.5 18.5z" />
<glyph unicode="&#xe0;" horiz-adv-x="563" d="M55 811q0 5 1.5 10t4.5 8q3 42 15 80.5t37.5 68.5t64.5 48t96 18q60 0 100.5 -20.5t65 -53.5t35 -75t10.5 -86v-786q7 -9 7 -17q0 -11 -8 -18.5t-19 -7.5t-19 7.5t-8 18.5q0 9 6 17v43q-27 -39 -67.5 -62.5t-102.5 -23.5q-60 0 -100.5 20.5t-65 53.5t-35 75t-10.5 86v166 q0 44 9.5 86t37 75t79 53.5t135.5 20.5h120v193q0 35 -8.5 70t-28 62.5t-52.5 45t-81 17.5q-46 0 -78 -15.5t-52.5 -40t-30.5 -56.5t-11 -65q7 -7 7 -16t-8 -17t-19 -8t-19 8t-8 17zM82 1427q0 11 8 19t19 8q9 0 16.5 -7.5t9.5 -16.5l209 -209q9 -2 17 -10t8 -17 q0 -11 -8 -19t-19 -8t-19 8t-8 19l-206 207q-11 0 -19 7.5t-8 18.5zM104 215q0 -35 8 -70t27.5 -63t52 -45t82.5 -17q48 0 80 15.5t51.5 41t28 58t10.5 66.5v374h-120q-72 0 -115.5 -17t-67 -44.5t-30.5 -62.5t-7 -70v-166z" />
<glyph unicode="&#xe1;" horiz-adv-x="563" d="M55 811q0 5 1.5 10t4.5 8q3 42 15 80.5t37.5 68.5t64.5 48t96 18q60 0 100.5 -20.5t65 -53.5t35 -75t10.5 -86v-786q7 -9 7 -17q0 -11 -8 -18.5t-19 -7.5t-19 7.5t-8 18.5q0 9 6 17v43q-27 -39 -67.5 -62.5t-102.5 -23.5q-60 0 -100.5 20.5t-65 53.5t-35 75t-10.5 86v166 q0 44 9.5 86t37 75t79 53.5t135.5 20.5h120v193q0 35 -8.5 70t-28 62.5t-52.5 45t-81 17.5q-46 0 -78 -15.5t-52.5 -40t-30.5 -56.5t-11 -65q7 -7 7 -16t-8 -17t-19 -8t-19 8t-8 17zM104 215q0 -35 8 -70t27.5 -63t52 -45t82.5 -17q48 0 80 15.5t51.5 41t28 58t10.5 66.5 v374h-120q-72 0 -115.5 -17t-67 -44.5t-30.5 -62.5t-7 -70v-166zM219 1194q0 9 6.5 17t17.5 10l209 209q0 9 8 16.5t19 7.5t19 -8t8 -19t-8 -18.5t-19 -7.5l-207 -207q0 -11 -7.5 -19t-18.5 -8t-19 8t-8 19z" />
<glyph unicode="&#xe2;" horiz-adv-x="563" d="M15 1194q0 9 7 17t18 10l209 209q0 9 8 16.5t19 7.5q9 0 16.5 -7.5t9.5 -16.5l209 -209q9 -2 17 -10t8 -17q0 -11 -8 -19t-19 -8t-19 8t-8 19l-206 207l-207 -207q0 -11 -8 -19t-19 -8t-19 8t-8 19zM55 811q0 5 1.5 10t4.5 8q3 42 15 80.5t37.5 68.5t64.5 48t96 18 q60 0 100.5 -20.5t65 -53.5t35 -75t10.5 -86v-786q7 -9 7 -17q0 -11 -8 -18.5t-19 -7.5t-19 7.5t-8 18.5q0 9 6 17v43q-27 -39 -67.5 -62.5t-102.5 -23.5q-60 0 -100.5 20.5t-65 53.5t-35 75t-10.5 86v166q0 44 9.5 86t37 75t79 53.5t135.5 20.5h120v193q0 35 -8.5 70 t-28 62.5t-52.5 45t-81 17.5q-46 0 -78 -15.5t-52.5 -40t-30.5 -56.5t-11 -65q7 -7 7 -16t-8 -17t-19 -8t-19 8t-8 17zM104 215q0 -35 8 -70t27.5 -63t52 -45t82.5 -17q48 0 80 15.5t51.5 41t28 58t10.5 66.5v374h-120q-72 0 -115.5 -17t-67 -44.5t-30.5 -62.5t-7 -70v-166z " />
<glyph unicode="&#xe3;" horiz-adv-x="563" d="M55 811q0 5 1.5 10t4.5 8q3 42 15 80.5t37.5 68.5t64.5 48t96 18q60 0 100.5 -20.5t65 -53.5t35 -75t10.5 -86v-786q7 -9 7 -17q0 -11 -8 -18.5t-19 -7.5t-19 7.5t-8 18.5q0 9 6 17v43q-27 -39 -67.5 -62.5t-102.5 -23.5q-60 0 -100.5 20.5t-65 53.5t-35 75t-10.5 86v166 q0 44 9.5 86t37 75t79 53.5t135.5 20.5h120v193q0 35 -8.5 70t-28 62.5t-52.5 45t-81 17.5q-46 0 -78 -15.5t-52.5 -40t-30.5 -56.5t-11 -65q7 -7 7 -16t-8 -17t-19 -8t-19 8t-8 17zM68 1251q0 14 8 19v14q0 34 9.5 56t25.5 35t36 18.5t40 5.5q25 0 44.5 -10t35.5 -24.5 t30 -32t28.5 -32t29.5 -24.5t34 -10q28 0 49 14.5t21 58.5v15q-6 9 -6 18q0 11 8 19t19 8t18.5 -8t7.5 -19q0 -7 -2.5 -11.5t-5.5 -8.5v-13q0 -32 -9 -54t-24 -35.5t-35.5 -19t-42.5 -5.5q-25 0 -45 10t-36 24.5t-30 32t-28 32t-29 24.5t-34 10q-28 0 -49 -15t-21 -59v-16 q6 -6 6 -17t-7.5 -18.5t-18.5 -7.5t-19 7.5t-8 18.5zM104 215q0 -35 8 -70t27.5 -63t52 -45t82.5 -17q48 0 80 15.5t51.5 41t28 58t10.5 66.5v374h-120q-72 0 -115.5 -17t-67 -44.5t-30.5 -62.5t-7 -70v-166z" />
<glyph unicode="&#xe4;" horiz-adv-x="563" d="M55 811q0 5 1.5 10t4.5 8q3 42 15 80.5t37.5 68.5t64.5 48t96 18q60 0 100.5 -20.5t65 -53.5t35 -75t10.5 -86v-786q7 -9 7 -17q0 -11 -8 -18.5t-19 -7.5t-19 7.5t-8 18.5q0 9 6 17v43q-27 -39 -67.5 -62.5t-102.5 -23.5q-60 0 -100.5 20.5t-65 53.5t-35 75t-10.5 86v166 q0 44 9.5 86t37 75t79 53.5t135.5 20.5h120v193q0 35 -8.5 70t-28 62.5t-52.5 45t-81 17.5q-46 0 -78 -15.5t-52.5 -40t-30.5 -56.5t-11 -65q7 -7 7 -16t-8 -17t-19 -8t-19 8t-8 17zM104 215q0 -35 8 -70t27.5 -63t52 -45t82.5 -17q48 0 80 15.5t51.5 41t28 58t10.5 66.5 v374h-120q-72 0 -115.5 -17t-67 -44.5t-30.5 -62.5t-7 -70v-166zM131 1254q0 10 6 16v59q-6 10 -6 19q0 11 7.5 18.5t18.5 7.5t19 -7.5t8 -18.5q0 -9 -6 -19v-59q6 -6 6 -16q0 -11 -8 -19t-19 -8t-18.5 8t-7.5 19zM362 1254q0 10 6 16v59q-6 10 -6 19q0 11 8 18.5t19 7.5 t18.5 -7.5t7.5 -18.5q0 -9 -6 -19v-59q6 -6 6 -16q0 -11 -7.5 -19t-18.5 -8t-19 8t-8 19z" />
<glyph unicode="&#xe5;" horiz-adv-x="563" d="M55 811q0 5 1.5 10t4.5 8q3 42 15 80.5t37.5 68.5t64.5 48t96 18q60 0 100.5 -20.5t65 -53.5t35 -75t10.5 -86v-786q7 -9 7 -17q0 -11 -8 -18.5t-19 -7.5t-19 7.5t-8 18.5q0 9 6 17v43q-27 -39 -67.5 -62.5t-102.5 -23.5q-60 0 -100.5 20.5t-65 53.5t-35 75t-10.5 86v166 q0 44 9.5 86t37 75t79 53.5t135.5 20.5h120v193q0 35 -8.5 70t-28 62.5t-52.5 45t-81 17.5q-46 0 -78 -15.5t-52.5 -40t-30.5 -56.5t-11 -65q7 -7 7 -16t-8 -17t-19 -8t-19 8t-8 17zM104 215q0 -35 8 -70t27.5 -63t52 -45t82.5 -17q48 0 80 15.5t51.5 41t28 58t10.5 66.5 v374h-120q-72 0 -115.5 -17t-67 -44.5t-30.5 -62.5t-7 -70v-166zM149 1307v10q0 24 6.5 48.5t21.5 44t39.5 32t59.5 12.5q37 0 61.5 -12.5t39 -32t20.5 -44t6 -58.5q0 -26 -6 -51.5t-20.5 -45t-39 -31.5t-61.5 -12q-35 0 -59.5 12t-39.5 31.5t-21.5 45t-6.5 51.5zM190 1307 q0 -18 4 -35.5t14 -31.5t26.5 -23t41.5 -9t41 9q17 9 27 23t14 31.5t4 35.5q0 26 -4 43t-14 31t-26.5 23t-41.5 9t-41.5 -9t-26.5 -23t-14 -31t-4 -43z" />
<glyph unicode="&#xe6;" horiz-adv-x="928" d="M55 811q0 5 1.5 10t4.5 8q3 42 15 80.5t37.5 68.5t64.5 48t96 18q79 0 124 -34t67 -86q10 26 26 48t39.5 38t54 25t70.5 9q60 0 100.5 -20.5t65 -53.5t35 -75t10.5 -86v-234h-381v-360q0 -36 8.5 -71t28 -62.5t52.5 -44.5t81 -17q47 0 79 15t51.5 39.5t28.5 56.5t11 66 q-3 3 -4.5 8t-1.5 8q0 11 8 19t19 8t18.5 -8t7.5 -19q0 -3 -1.5 -8t-4.5 -8q-2 -42 -13.5 -81t-36 -69t-64 -48.5t-97.5 -18.5q-40 0 -70.5 9t-54 25t-39.5 37.5t-26 46.5q-23 -49 -70 -83.5t-121 -34.5q-60 0 -100.5 20.5t-65 53.5t-35 75t-10.5 86v166q0 44 9.5 86t37 75 t79 53.5t135.5 20.5h120v193q0 35 -8.5 70t-28 62.5t-52.5 45t-81 17.5q-46 0 -78 -15.5t-52.5 -40t-30.5 -56.5t-11 -65q7 -7 7 -16t-8 -17t-19 -8t-19 8t-8 17zM104 215q0 -35 8 -70t27.5 -63t52 -45t82.5 -17q48 0 80 15.5t51.5 41t28 58t10.5 66.5v374h-120 q-72 0 -115.5 -17t-67 -44.5t-30.5 -62.5t-7 -70v-166zM485 616h340v193q0 35 -8 70t-27.5 62.5t-52.5 45t-82 17.5q-46 0 -78 -15.5t-52 -41t-29.5 -58t-10.5 -66.5v-14v-193z" />
<glyph unicode="&#xe7;" horiz-adv-x="539" d="M72 215v594q0 44 10.5 86t35 75t65 53.5t100.5 20.5q57 0 96 -18t64.5 -48t37.5 -68.5t15 -80.5q3 -3 4.5 -8t1.5 -10q0 -9 -8 -17t-19 -8t-18.5 8t-7.5 17q0 10 6 16q-2 33 -11.5 65t-30 56.5t-52.5 40t-78 15.5q-48 0 -81 -17.5t-52.5 -45t-28 -62.5t-8.5 -70v-594 q0 -36 8.5 -71t28 -62.5t52.5 -44.5t81 -17q46 0 78 14.5t52.5 39t30 56t11.5 65.5q-3 3 -4.5 8t-1.5 10q0 9 7.5 17t18.5 8t19 -8t8 -17q0 -5 -1.5 -10t-4.5 -8q-3 -42 -15 -80.5t-37.5 -68.5t-64.5 -48t-96 -18h-5v-70h17q26 0 51.5 -6.5t46 -22t33 -40.5t12.5 -62v-33 q0 -37 -12.5 -62t-33 -40.5t-46 -22t-51.5 -6.5h-119q-6 -6 -16 -6q-11 0 -19 7.5t-8 18.5t8 19t19 8q10 0 16 -6h119q18 0 36.5 4t33 14.5t23.5 28t9 43.5v33q0 26 -9 43t-23.5 27.5t-33 15t-36.5 4.5h-58v115q-31 5 -55 16q-40 21 -64.5 54t-35 75t-10.5 86z" />
<glyph unicode="&#xe8;" horiz-adv-x="555" d="M72 215v594q0 44 10.5 86t35 75t65 53.5t100.5 20.5t100 -20.5t65 -53.5t35.5 -75t10.5 -86v-234h-381v-360q0 -36 8.5 -71t28 -62.5t52.5 -44.5t81 -17q47 0 79 15t51.5 39.5t28.5 56.5t11 66q-3 3 -5 8t-2 8q0 11 8 19t19 8t19 -8t8 -19q0 -3 -1.5 -8t-4.5 -8 q-3 -42 -14.5 -81t-35.5 -69t-63.5 -48.5t-97.5 -18.5q-60 0 -100.5 20.5t-65 53.5t-35 75t-10.5 86zM100 1427q0 11 8 19t19 8q9 0 16.5 -7.5t9.5 -16.5l209 -209q9 -2 17 -10t8 -17q0 -11 -8 -19t-19 -8t-19 8t-8 19l-206 207q-11 0 -19 7.5t-8 18.5zM113 616h340v193 q0 35 -8 70t-27.5 62.5t-52.5 45t-82 17.5q-48 0 -81 -17.5t-52.5 -45t-28 -62.5t-8.5 -70v-193z" />
<glyph unicode="&#xe9;" horiz-adv-x="555" d="M72 215v594q0 44 10.5 86t35 75t65 53.5t100.5 20.5t100 -20.5t65 -53.5t35.5 -75t10.5 -86v-234h-381v-360q0 -36 8.5 -71t28 -62.5t52.5 -44.5t81 -17q47 0 79 15t51.5 39.5t28.5 56.5t11 66q-3 3 -5 8t-2 8q0 11 8 19t19 8t19 -8t8 -19q0 -3 -1.5 -8t-4.5 -8 q-3 -42 -14.5 -81t-35.5 -69t-63.5 -48.5t-97.5 -18.5q-60 0 -100.5 20.5t-65 53.5t-35 75t-10.5 86zM113 616h340v193q0 35 -8 70t-27.5 62.5t-52.5 45t-82 17.5q-48 0 -81 -17.5t-52.5 -45t-28 -62.5t-8.5 -70v-193zM223 1194q0 9 6.5 17t17.5 10l209 209q0 9 8 16.5 t19 7.5t19 -8t8 -19t-8 -18.5t-19 -7.5l-207 -207q0 -11 -7.5 -19t-18.5 -8t-19 8t-8 19z" />
<glyph unicode="&#xea;" horiz-adv-x="555" d="M24 1194q0 9 7 17t18 10l209 209q0 9 8 16.5t19 7.5q9 0 16.5 -7.5t9.5 -16.5l209 -209q9 -2 17 -10t8 -17q0 -11 -8 -19t-19 -8t-19 8t-8 19l-206 207l-207 -207q0 -11 -8 -19t-19 -8t-19 8t-8 19zM72 215v594q0 44 10.5 86t35 75t65 53.5t100.5 20.5t100 -20.5 t65 -53.5t35.5 -75t10.5 -86v-234h-381v-360q0 -36 8.5 -71t28 -62.5t52.5 -44.5t81 -17q47 0 79 15t51.5 39.5t28.5 56.5t11 66q-3 3 -5 8t-2 8q0 11 8 19t19 8t19 -8t8 -19q0 -3 -1.5 -8t-4.5 -8q-3 -42 -14.5 -81t-35.5 -69t-63.5 -48.5t-97.5 -18.5q-60 0 -100.5 20.5 t-65 53.5t-35 75t-10.5 86zM113 616h340v193q0 35 -8 70t-27.5 62.5t-52.5 45t-82 17.5q-48 0 -81 -17.5t-52.5 -45t-28 -62.5t-8.5 -70v-193z" />
<glyph unicode="&#xeb;" horiz-adv-x="555" d="M72 215v594q0 44 10.5 86t35 75t65 53.5t100.5 20.5t100 -20.5t65 -53.5t35.5 -75t10.5 -86v-234h-381v-360q0 -36 8.5 -71t28 -62.5t52.5 -44.5t81 -17q47 0 79 15t51.5 39.5t28.5 56.5t11 66q-3 3 -5 8t-2 8q0 11 8 19t19 8t19 -8t8 -19q0 -3 -1.5 -8t-4.5 -8 q-3 -42 -14.5 -81t-35.5 -69t-63.5 -48.5t-97.5 -18.5q-60 0 -100.5 20.5t-65 53.5t-35 75t-10.5 86zM113 616h340v193q0 35 -8 70t-27.5 62.5t-52.5 45t-82 17.5q-48 0 -81 -17.5t-52.5 -45t-28 -62.5t-8.5 -70v-193zM144 1254q0 10 6 16v59q-6 10 -6 19q0 11 7.5 18.5 t18.5 7.5t19 -7.5t8 -18.5q0 -9 -6 -19v-59q6 -6 6 -16q0 -11 -8 -19t-19 -8t-18.5 8t-7.5 19zM375 1254q0 10 6 16v59q-6 10 -6 19q0 11 8 18.5t19 7.5t18.5 -7.5t7.5 -18.5q0 -9 -6 -19v-59q6 -6 6 -16q0 -11 -7.5 -19t-18.5 -8t-19 8t-8 19z" />
<glyph unicode="&#xec;" horiz-adv-x="213" d="M-153 1427q0 11 8 19t19 8q9 0 16.5 -7.5t9.5 -16.5l209 -209q9 -2 17 -10t8 -17q0 -11 -8 -19t-19 -8t-19 8t-8 19l-206 207q-11 0 -19 7.5t-8 18.5zM81 6q0 9 6 17v976q-6 10 -6 19q0 11 8 18.5t19 7.5t18.5 -7.5t7.5 -18.5q0 -9 -6 -19v-976q6 -8 6 -17 q0 -11 -7.5 -18.5t-18.5 -7.5t-19 7.5t-8 18.5z" />
<glyph unicode="&#xed;" horiz-adv-x="213" d="M82 6q0 9 6 17v976q-6 10 -6 19q0 11 8 18.5t19 7.5t18.5 -7.5t7.5 -18.5q0 -9 -6 -19v-976q6 -8 6 -17q0 -11 -7.5 -18.5t-18.5 -7.5t-19 7.5t-8 18.5zM84 1194q0 9 6.5 17t17.5 10l209 209q0 9 8 16.5t19 7.5t19 -8t8 -19t-8 -18.5t-19 -7.5l-207 -207q0 -11 -7.5 -19 t-18.5 -8t-19 8t-8 19z" />
<glyph unicode="&#xee;" horiz-adv-x="213" d="M-153 1194q0 9 7 17t18 10l209 209q0 9 8 16.5t19 7.5q9 0 16.5 -7.5t9.5 -16.5l209 -209q9 -2 17 -10t8 -17q0 -11 -8 -19t-19 -8t-19 8t-8 19l-206 207l-207 -207q0 -11 -8 -19t-19 -8t-19 8t-8 19zM81 6q0 9 6 17v976q-6 10 -6 19q0 11 8 18.5t19 7.5t18.5 -7.5 t7.5 -18.5q0 -9 -6 -19v-976q6 -8 6 -17q0 -11 -7.5 -18.5t-18.5 -7.5t-19 7.5t-8 18.5z" />
<glyph unicode="&#xef;" horiz-adv-x="215" d="M-34 1254q0 10 6 16v59q-6 10 -6 19q0 11 7.5 18.5t18.5 7.5t19 -7.5t8 -18.5q0 -9 -6 -19v-59q6 -6 6 -16q0 -11 -8 -19t-19 -8t-18.5 8t-7.5 19zM80 6q0 9 6 17v976q-6 10 -6 19q0 11 8 18.5t19 7.5t18.5 -7.5t7.5 -18.5q0 -9 -6 -19v-976q6 -8 6 -17q0 -11 -7.5 -18.5 t-18.5 -7.5t-19 7.5t-8 18.5zM197 1254q0 10 6 16v59q-6 10 -6 19q0 11 8 18.5t19 7.5t18.5 -7.5t7.5 -18.5q0 -9 -6 -19v-59q6 -6 6 -16q0 -11 -7.5 -19t-18.5 -8t-19 8t-8 19z" />
<glyph unicode="&#xf0;" horiz-adv-x="565" d="M72 215v594q0 44 10.5 86t35 75t65 53.5t100.5 20.5q37 0 65 -8t51 -22l-61 188l-90 -31q-7 -10 -21 -10q-11 0 -18.5 8t-7.5 19t7.5 18.5t18.5 7.5q2 0 4.5 -1t6.5 -1l86 29l-54 164q-12 6 -12 22q0 11 8 19t19 8t18.5 -8t7.5 -19q0 -8 -2 -12l53 -160l87 29q9 12 22 12 q11 0 19 -7.5t8 -18.5t-8 -19t-19 -8q-8 0 -12 2l-84 -28l100 -297q19 -55 19 -111v-594q0 -44 -10.5 -86t-35.5 -75t-65 -53.5t-100 -20.5t-100.5 20.5t-65 53.5t-35 75t-10.5 86zM113 215q0 -36 8.5 -71t28 -62.5t52.5 -44.5t81 -17q49 0 82 17t52.5 44.5t27.5 62.5t8 71 v594q0 35 -8 70t-27.5 62.5t-52.5 45t-82 17.5q-48 0 -81 -17.5t-52.5 -45t-28 -62.5t-8.5 -70v-594z" />
<glyph unicode="&#xf1;" horiz-adv-x="582" d="M69 1251q0 14 8 19v14q0 34 9.5 56t25.5 35t36 18.5t40 5.5q25 0 44.5 -10t35.5 -24.5t30 -32t28.5 -32t29.5 -24.5t34 -10q28 0 49 14.5t21 58.5v15q-6 9 -6 18q0 11 8 19t19 8t18.5 -8t7.5 -19q0 -7 -2.5 -11.5t-5.5 -8.5v-13q0 -32 -9 -54t-24 -35.5t-35.5 -19 t-42.5 -5.5q-25 0 -45 10t-36 24.5t-30 32t-28 32t-29 24.5t-34 10q-28 0 -49 -15t-21 -59v-16q6 -6 6 -17t-7.5 -18.5t-18.5 -7.5t-19 7.5t-8 18.5zM76 6q0 9 6 17v976q-6 10 -6 19q0 11 7.5 18.5t18.5 7.5t19 -7.5t8 -18.5q0 -9 -6 -19v-51q28 49 68 72.5t102 23.5 q61 0 101.5 -20.5t65 -53.5t34.5 -75t10 -86v-786q6 -8 6 -17q0 -11 -8 -18.5t-19 -7.5t-18.5 7.5t-7.5 18.5q0 9 6 17v786q0 35 -8 70t-27.5 62.5t-52 45t-82.5 17.5q-43 0 -75 -17.5t-53 -45t-31.5 -62.5t-10.5 -70v-786q6 -8 6 -17q0 -11 -8 -18.5t-19 -7.5t-18.5 7.5 t-7.5 18.5z" />
<glyph unicode="&#xf2;" horiz-adv-x="565" d="M72 215v594q0 44 10.5 86t35 75t65 53.5t100.5 20.5t100 -20.5t65 -53.5t35.5 -75t10.5 -86v-594q0 -44 -10.5 -86t-35.5 -75t-65 -53.5t-100 -20.5t-100.5 20.5t-65 53.5t-35 75t-10.5 86zM98 1427q0 11 8 19t19 8q9 0 16.5 -7.5t9.5 -16.5l209 -209q9 -2 17 -10t8 -17 q0 -11 -8 -19t-19 -8t-19 8t-8 19l-206 207q-11 0 -19 7.5t-8 18.5zM113 215q0 -36 8.5 -71t28 -62.5t52.5 -44.5t81 -17q49 0 82 17t52.5 44.5t27.5 62.5t8 71v594q0 35 -8 70t-27.5 62.5t-52.5 45t-82 17.5q-48 0 -81 -17.5t-52.5 -45t-28 -62.5t-8.5 -70v-594z" />
<glyph unicode="&#xf3;" horiz-adv-x="565" d="M72 215v594q0 44 10.5 86t35 75t65 53.5t100.5 20.5t100 -20.5t65 -53.5t35.5 -75t10.5 -86v-594q0 -44 -10.5 -86t-35.5 -75t-65 -53.5t-100 -20.5t-100.5 20.5t-65 53.5t-35 75t-10.5 86zM113 215q0 -36 8.5 -71t28 -62.5t52.5 -44.5t81 -17q49 0 82 17t52.5 44.5 t27.5 62.5t8 71v594q0 35 -8 70t-27.5 62.5t-52.5 45t-82 17.5q-48 0 -81 -17.5t-52.5 -45t-28 -62.5t-8.5 -70v-594zM221 1194q0 9 6.5 17t17.5 10l209 209q0 9 8 16.5t19 7.5t19 -8t8 -19t-8 -18.5t-19 -7.5l-207 -207q0 -11 -7.5 -19t-18.5 -8t-19 8t-8 19z" />
<glyph unicode="&#xf4;" horiz-adv-x="565" d="M19 1194q0 9 7 17t18 10l209 209q0 9 8 16.5t19 7.5q9 0 16.5 -7.5t9.5 -16.5l209 -209q9 -2 17 -10t8 -17q0 -11 -8 -19t-19 -8t-19 8t-8 19l-206 207l-207 -207q0 -11 -8 -19t-19 -8t-19 8t-8 19zM72 215v594q0 44 10.5 86t35 75t65 53.5t100.5 20.5t100 -20.5 t65 -53.5t35.5 -75t10.5 -86v-594q0 -44 -10.5 -86t-35.5 -75t-65 -53.5t-100 -20.5t-100.5 20.5t-65 53.5t-35 75t-10.5 86zM113 215q0 -36 8.5 -71t28 -62.5t52.5 -44.5t81 -17q49 0 82 17t52.5 44.5t27.5 62.5t8 71v594q0 35 -8 70t-27.5 62.5t-52.5 45t-82 17.5 q-48 0 -81 -17.5t-52.5 -45t-28 -62.5t-8.5 -70v-594z" />
<glyph unicode="&#xf5;" horiz-adv-x="565" d="M64 1251q0 14 8 19v14q0 34 9.5 56t25.5 35t36 18.5t40 5.5q25 0 44.5 -10t35.5 -24.5t30 -32t28.5 -32t29.5 -24.5t34 -10q28 0 49 14.5t21 58.5v15q-6 9 -6 18q0 11 8 19t19 8t18.5 -8t7.5 -19q0 -7 -2.5 -11.5t-5.5 -8.5v-13q0 -32 -9 -54t-24 -35.5t-35.5 -19 t-42.5 -5.5q-25 0 -45 10t-36 24.5t-30 32t-28 32t-29 24.5t-34 10q-28 0 -49 -15t-21 -59v-16q6 -6 6 -17t-7.5 -18.5t-18.5 -7.5t-19 7.5t-8 18.5zM72 215v594q0 44 10.5 86t35 75t65 53.5t100.5 20.5t100 -20.5t65 -53.5t35.5 -75t10.5 -86v-594q0 -44 -10.5 -86 t-35.5 -75t-65 -53.5t-100 -20.5t-100.5 20.5t-65 53.5t-35 75t-10.5 86zM113 215q0 -36 8.5 -71t28 -62.5t52.5 -44.5t81 -17q49 0 82 17t52.5 44.5t27.5 62.5t8 71v594q0 35 -8 70t-27.5 62.5t-52.5 45t-82 17.5q-48 0 -81 -17.5t-52.5 -45t-28 -62.5t-8.5 -70v-594z" />
<glyph unicode="&#xf6;" horiz-adv-x="565" d="M72 215v594q0 44 10.5 86t35 75t65 53.5t100.5 20.5t100 -20.5t65 -53.5t35.5 -75t10.5 -86v-594q0 -44 -10.5 -86t-35.5 -75t-65 -53.5t-100 -20.5t-100.5 20.5t-65 53.5t-35 75t-10.5 86zM113 215q0 -36 8.5 -71t28 -62.5t52.5 -44.5t81 -17q49 0 82 17t52.5 44.5 t27.5 62.5t8 71v594q0 35 -8 70t-27.5 62.5t-52.5 45t-82 17.5q-48 0 -81 -17.5t-52.5 -45t-28 -62.5t-8.5 -70v-594zM142 1254q0 10 6 16v59q-6 10 -6 19q0 11 7.5 18.5t18.5 7.5t19 -7.5t8 -18.5q0 -9 -6 -19v-59q6 -6 6 -16q0 -11 -8 -19t-19 -8t-18.5 8t-7.5 19z M373 1254q0 10 6 16v59q-6 10 -6 19q0 11 8 18.5t19 7.5t18.5 -7.5t7.5 -18.5q0 -9 -6 -19v-59q6 -6 6 -16q0 -11 -7.5 -19t-18.5 -8t-19 8t-8 19z" />
<glyph unicode="&#xf7;" horiz-adv-x="723" d="M68 552q0 11 8 19t19 8q10 0 16 -7h498q8 7 18 7q11 0 19 -8t8 -19t-8 -19t-19 -8q-9 0 -18 6h-498q-6 -6 -16 -6q-11 0 -19 8t-8 19zM315 312q0 20 11.5 33.5t33.5 13.5q23 0 35 -13.5t12 -33.5q0 -19 -12 -32t-35 -13q-22 0 -33.5 13t-11.5 32zM315 785q0 20 11.5 33.5 t33.5 13.5q23 0 35 -13.5t12 -33.5q0 -19 -12 -32t-35 -13q-22 0 -33.5 13t-11.5 32z" />
<glyph unicode="&#xf8;" horiz-adv-x="596" d="M-43 -47q0 9 5 16t13 11l113 201q-1 17 -1 34v594q0 44 10.5 86t35 75t65 53.5t100.5 20.5t100 -20.5t65 -53.5q21 -29 32 -64l89 157v8q0 11 7.5 19t18.5 8t19 -8t8 -19q0 -9 -5.5 -16t-13.5 -11l-111 -197q2 -19 2 -38v-594q0 -44 -10.5 -86t-35.5 -75t-65 -53.5 t-100 -20.5t-100.5 20.5t-65.5 53.5q-22 30 -33 68l-91 -161q2 -2 2 -8q0 -11 -7.5 -19t-18.5 -8t-19 8t-8 19zM128 252l337 599q-2 14 -5 28q-8 35 -27.5 62.5t-52.5 45t-82 17.5q-48 0 -81 -17.5t-52.5 -45t-28 -62.5t-8.5 -70v-557zM130 177q2 -17 6 -33 q9 -35 28.5 -62.5t52.5 -44.5t81 -17q49 0 82 17t52.5 44.5t27.5 62.5t8 71v562z" />
<glyph unicode="&#xf9;" horiz-adv-x="582" d="M72 1018q0 11 7.5 18.5t18.5 7.5t19 -7.5t8 -18.5q0 -9 -6 -19v-784q0 -35 8 -70t27.5 -63t52 -45t82.5 -17q45 0 77.5 15.5t53 41.5t30 59.5t9.5 68.5v794q-6 10 -6 19q0 11 7.5 18.5t18.5 7.5t19 -7.5t8 -18.5q0 -9 -6 -19v-976q6 -8 6 -17q0 -11 -8 -18.5t-19 -7.5 t-18.5 7.5t-7.5 18.5q0 9 6 17v53q-28 -49 -68 -72.5t-102 -23.5q-61 0 -101.5 20.5t-65 53.5t-34.5 75t-10 86v784q-6 10 -6 19zM88 1427q0 11 8 19t19 8q9 0 16.5 -7.5t9.5 -16.5l209 -209q9 -2 17 -10t8 -17q0 -11 -8 -19t-19 -8t-19 8t-8 19l-206 207q-11 0 -19 7.5 t-8 18.5z" />
<glyph unicode="&#xfa;" horiz-adv-x="582" d="M72 1018q0 11 7.5 18.5t18.5 7.5t19 -7.5t8 -18.5q0 -9 -6 -19v-784q0 -35 8 -70t27.5 -63t52 -45t82.5 -17q45 0 77.5 15.5t53 41.5t30 59.5t9.5 68.5v794q-6 10 -6 19q0 11 7.5 18.5t18.5 7.5t19 -7.5t8 -18.5q0 -9 -6 -19v-976q6 -8 6 -17q0 -11 -8 -18.5t-19 -7.5 t-18.5 7.5t-7.5 18.5q0 9 6 17v53q-28 -49 -68 -72.5t-102 -23.5q-61 0 -101.5 20.5t-65 53.5t-34.5 75t-10 86v784q-6 10 -6 19zM232 1194q0 9 6.5 17t17.5 10l209 209q0 9 8 16.5t19 7.5t19 -8t8 -19t-8 -18.5t-19 -7.5l-207 -207q0 -11 -7.5 -19t-18.5 -8t-19 8t-8 19z " />
<glyph unicode="&#xfb;" horiz-adv-x="582" d="M30 1194q0 9 7 17t18 10l209 209q0 9 8 16.5t19 7.5q9 0 16.5 -7.5t9.5 -16.5l209 -209q9 -2 17 -10t8 -17q0 -11 -8 -19t-19 -8t-19 8t-8 19l-206 207l-207 -207q0 -11 -8 -19t-19 -8t-19 8t-8 19zM72 1018q0 11 7.5 18.5t18.5 7.5t19 -7.5t8 -18.5q0 -9 -6 -19v-784 q0 -35 8 -70t27.5 -63t52 -45t82.5 -17q45 0 77.5 15.5t53 41.5t30 59.5t9.5 68.5v794q-6 10 -6 19q0 11 7.5 18.5t18.5 7.5t19 -7.5t8 -18.5q0 -9 -6 -19v-976q6 -8 6 -17q0 -11 -8 -18.5t-19 -7.5t-18.5 7.5t-7.5 18.5q0 9 6 17v53q-28 -49 -68 -72.5t-102 -23.5 q-61 0 -101.5 20.5t-65 53.5t-34.5 75t-10 86v784q-6 10 -6 19z" />
<glyph unicode="&#xfc;" horiz-adv-x="582" d="M72 1018q0 11 7.5 18.5t18.5 7.5t19 -7.5t8 -18.5q0 -9 -6 -19v-784q0 -35 8 -70t27.5 -63t52 -45t82.5 -17q45 0 77.5 15.5t53 41.5t30 59.5t9.5 68.5v794q-6 10 -6 19q0 11 7.5 18.5t18.5 7.5t19 -7.5t8 -18.5q0 -9 -6 -19v-976q6 -8 6 -17q0 -11 -8 -18.5t-19 -7.5 t-18.5 7.5t-7.5 18.5q0 9 6 17v53q-28 -49 -68 -72.5t-102 -23.5q-61 0 -101.5 20.5t-65 53.5t-34.5 75t-10 86v784q-6 10 -6 19zM146 1254q0 10 6 16v59q-6 10 -6 19q0 11 7.5 18.5t18.5 7.5t19 -7.5t8 -18.5q0 -9 -6 -19v-59q6 -6 6 -16q0 -11 -8 -19t-19 -8t-18.5 8 t-7.5 19zM377 1254q0 10 6 16v59q-6 10 -6 19q0 11 8 18.5t19 7.5t18.5 -7.5t7.5 -18.5q0 -9 -6 -19v-59q6 -6 6 -16q0 -11 -7.5 -19t-18.5 -8t-19 8t-8 19z" />
<glyph unicode="&#xfd;" horiz-adv-x="516" d="M0 -403q0 11 8 18.5t19 7.5q8 0 16 -4q43 3 69.5 21t42.5 45.5t25 60.5t17 66l41 196l-213 989q-5 3 -7 9t-2 12q0 11 8 18.5t19 7.5t19 -7.5t8 -18.5q0 -6 -4 -14l194 -898l193 898q-2 3 -2 7v7q0 11 7.5 18.5t18.5 7.5t19 -7.5t8 -18.5q0 -14 -10 -21l-213 -985 l-43 -200q-9 -41 -20.5 -81t-32.5 -73t-54 -54.5t-86 -25.5q-5 -3 -9 -5.5t-9 -2.5q-11 0 -19 8t-8 19zM176 1194q0 9 6.5 17t17.5 10l209 209q0 9 8 16.5t19 7.5t19 -8t8 -19t-8 -18.5t-19 -7.5l-207 -207q0 -11 -7.5 -19t-18.5 -8t-19 8t-8 19z" />
<glyph unicode="&#xfe;" horiz-adv-x="573" d="M76 -403q0 9 6 18v1794q-6 9 -6 18q0 11 7.5 19t18.5 8t19 -8t8 -19q0 -9 -6 -18v-451q28 39 68 62.5t102 23.5q61 0 101.5 -20.5t65 -53.5t34.5 -75t10 -86v-594q0 -44 -10 -86t-34.5 -75t-65 -53.5t-101.5 -20.5q-62 0 -102 23.5t-68 62.5v-451q6 -9 6 -18 q0 -11 -8 -19t-19 -8t-18.5 8t-7.5 19zM123 215q0 -34 8.5 -68.5t28.5 -62.5t52.5 -46t80.5 -18q50 0 82.5 17t52 45t27.5 63t8 70v594q0 35 -8 70t-27.5 62.5t-52 45t-82.5 17.5q-43 0 -75 -17.5t-53 -45t-31.5 -62.5t-10.5 -70v-594z" />
<glyph unicode="&#xff;" horiz-adv-x="516" d="M0 -403q0 11 8 18.5t19 7.5q8 0 16 -4q43 3 69.5 21t42.5 45.5t25 60.5t17 66l41 196l-213 989q-5 3 -7 9t-2 12q0 11 8 18.5t19 7.5t19 -7.5t8 -18.5q0 -6 -4 -14l194 -898l193 898q-2 3 -2 7v7q0 11 7.5 18.5t18.5 7.5t19 -7.5t8 -18.5q0 -14 -10 -21l-213 -985 l-43 -200q-9 -41 -20.5 -81t-32.5 -73t-54 -54.5t-86 -25.5q-5 -3 -9 -5.5t-9 -2.5q-11 0 -19 8t-8 19zM121 1254q0 10 6 16v59q-6 10 -6 19q0 11 7.5 18.5t18.5 7.5t19 -7.5t8 -18.5q0 -9 -6 -19v-59q6 -6 6 -16q0 -11 -8 -19t-19 -8t-18.5 8t-7.5 19zM352 1254q0 10 6 16 v59q-6 10 -6 19q0 11 8 18.5t19 7.5t18.5 -7.5t7.5 -18.5q0 -9 -6 -19v-59q6 -6 6 -16q0 -11 -7.5 -19t-18.5 -8t-19 8t-8 19z" />
<glyph unicode="&#x152;" horiz-adv-x="928" d="M82 207v1014q0 43 10.5 85t35 75t65.5 53t102 20q59 0 100 -20t66 -53q20 -27 29 -59q8 21 22 39q25 33 66.5 53t103.5 20h166q9 6 18 6q11 0 19 -8t8 -19t-8 -19t-19 -8q-8 0 -18 7h-166q-51 0 -84.5 -16.5t-53.5 -43.5t-28 -61.5t-8 -69.5v-178h281q9 6 18 6 q11 0 19 -7.5t8 -18.5t-8 -19t-19 -8q-9 0 -18 6h-281v-942h340q9 6 18 6q11 0 19 -8t8 -19t-8 -18.5t-19 -7.5q-9 0 -18 6h-377v63l-10 -14q-25 -31 -66 -50t-100 -19q-61 0 -102 19t-65.5 50.5t-35 72.5t-10.5 85zM123 207q0 -36 8.5 -69.5t28.5 -60t53 -42t82 -15.5 t82 15.5t53 42t28.5 60t8.5 69.5v1014q0 35 -8.5 69.5t-28.5 61.5t-53 44t-82 17t-82 -17t-53 -44t-28.5 -61.5t-8.5 -69.5v-1014z" />
<glyph unicode="&#x153;" horiz-adv-x="936" d="M72 215v594q0 44 10.5 86t35 75t65 53.5t100.5 20.5t100 -20.5t65 -53.5q15 -21 25 -44q10 23 25 44q25 33 65.5 53.5t100.5 20.5t100 -20.5t65 -53.5t35.5 -75t10.5 -86v-234h-381v-360q0 -36 8.5 -71t28 -62.5t52.5 -44.5t81 -17q47 0 79 15t51.5 39.5t28.5 56.5t11 66 q-3 3 -5 8t-2 8q0 11 8 19t19 8t19 -8t8 -19q0 -3 -1.5 -8t-4.5 -8q-3 -42 -14.5 -81t-35.5 -69t-63.5 -48.5t-97.5 -18.5q-60 0 -100.5 20.5t-65.5 53.5q-15 20 -25 44q-10 -24 -25 -44q-25 -33 -65 -53.5t-100 -20.5t-100.5 20.5t-65 53.5t-35 75t-10.5 86zM113 215 q0 -36 8.5 -71t28 -62.5t52.5 -44.5t81 -17q49 0 82 17t52.5 44.5t27.5 62.5t8 71v594q0 35 -8 70t-27.5 62.5t-52.5 45t-82 17.5q-48 0 -81 -17.5t-52.5 -45t-28 -62.5t-8.5 -70v-594zM494 616h340v193q0 35 -8 70t-27.5 62.5t-52.5 45t-82 17.5q-48 0 -81 -17.5t-52.5 -45 t-28 -62.5t-8.5 -70v-193z" />
<glyph unicode="&#x2c6;" horiz-adv-x="643" d="M61 1194q0 9 7 17t18 10l209 209q0 9 8 16.5t19 7.5q9 0 16.5 -7.5t9.5 -16.5l209 -209q9 -2 17 -10t8 -17q0 -11 -8 -19t-19 -8t-19 8t-8 19l-206 207l-207 -207q0 -11 -8 -19t-19 -8t-19 8t-8 19z" />
<glyph unicode="&#x2dc;" horiz-adv-x="602" d="M82 1251q0 14 8 19v14q0 34 9.5 56t25.5 35t36 18.5t40 5.5q25 0 44.5 -10t35.5 -24.5t30 -32t28.5 -32t29.5 -24.5t34 -10q28 0 49 14.5t21 58.5v15q-6 9 -6 18q0 11 8 19t19 8t18.5 -8t7.5 -19q0 -7 -2.5 -11.5t-5.5 -8.5v-13q0 -32 -9 -54t-24 -35.5t-35.5 -19 t-42.5 -5.5q-25 0 -45 10t-36 24.5t-30 32t-28 32t-29 24.5t-34 10q-28 0 -49 -15t-21 -59v-16q6 -6 6 -17t-7.5 -18.5t-18.5 -7.5t-19 7.5t-8 18.5z" />
<glyph unicode="&#x2000;" horiz-adv-x="910" />
<glyph unicode="&#x2001;" horiz-adv-x="1821" />
<glyph unicode="&#x2002;" horiz-adv-x="910" />
<glyph unicode="&#x2003;" horiz-adv-x="1821" />
<glyph unicode="&#x2004;" horiz-adv-x="607" />
<glyph unicode="&#x2005;" horiz-adv-x="455" />
<glyph unicode="&#x2006;" horiz-adv-x="303" />
<glyph unicode="&#x2007;" horiz-adv-x="303" />
<glyph unicode="&#x2008;" horiz-adv-x="227" />
<glyph unicode="&#x2009;" horiz-adv-x="364" />
<glyph unicode="&#x200a;" horiz-adv-x="101" />
<glyph unicode="&#x2010;" horiz-adv-x="618" d="M51 596q0 11 8 19t19 8q10 0 16 -7h426q8 7 19 7t18.5 -8t7.5 -19t-7.5 -19t-18.5 -8q-10 0 -19 6h-426q-6 -6 -16 -6q-11 0 -19 8t-8 19z" />
<glyph unicode="&#x2011;" horiz-adv-x="618" d="M51 596q0 11 8 19t19 8q10 0 16 -7h426q8 7 19 7t18.5 -8t7.5 -19t-7.5 -19t-18.5 -8q-10 0 -19 6h-426q-6 -6 -16 -6q-11 0 -19 8t-8 19z" />
<glyph unicode="&#x2012;" horiz-adv-x="618" d="M51 596q0 11 8 19t19 8q10 0 16 -7h426q8 7 19 7t18.5 -8t7.5 -19t-7.5 -19t-18.5 -8q-10 0 -19 6h-426q-6 -6 -16 -6q-11 0 -19 8t-8 19z" />
<glyph unicode="&#x2013;" horiz-adv-x="678" d="M45 596q0 11 8 19t19 8q10 0 16 -7h498q8 7 18 7q11 0 19 -8t8 -19t-8 -19t-19 -8q-9 0 -18 6h-498q-6 -6 -16 -6q-11 0 -19 8t-8 19z" />
<glyph unicode="&#x2014;" horiz-adv-x="844" d="M45 596q0 11 8 19t19 8q10 0 16 -7h664q8 7 18 7q11 0 19 -8t8 -19t-8 -19t-19 -8q-9 0 -18 6h-664q-6 -6 -16 -6q-11 0 -19 8t-8 19z" />
<glyph unicode="&#x2018;" horiz-adv-x="223" d="M51 1407q0 -19 12 -32t35 -13h4l56 -101v-4q0 -11 7.5 -19t18.5 -8t19 8t8 19q0 20 -19 27l-55 98q6 9 6 25q0 20 -11.5 33.5t-33.5 13.5q-23 0 -35 -13.5t-12 -33.5z" />
<glyph unicode="&#x2019;" horiz-adv-x="223" d="M12 1257q0 20 19 27l55 98q-6 9 -6 25q0 20 11.5 33.5t33.5 13.5q23 0 35 -13.5t12 -33.5q0 -19 -12 -32t-35 -13h-4l-56 -101v-4q0 -11 -7.5 -19t-18.5 -8t-19 8t-8 19z" />
<glyph unicode="&#x201a;" horiz-adv-x="223" d="M12 -125q0 20 19 27l55 98q-6 9 -6 25q0 20 11.5 33.5t33.5 13.5q23 0 35 -13.5t12 -33.5q0 -19 -12 -32t-35 -13h-4l-56 -101v-4q0 -11 -7.5 -19t-18.5 -8t-19 8t-8 19z" />
<glyph unicode="&#x201c;" horiz-adv-x="412" d="M51 1407q0 -19 12 -32t35 -13h4l56 -101v-4q0 -11 7.5 -19t18.5 -8t19 8t8 19q0 20 -19 27l-55 98q6 9 6 25q0 20 -11.5 33.5t-33.5 13.5q-23 0 -35 -13.5t-12 -33.5zM237 1407q0 -19 12 -32t35 -13h4l56 -101v-4q0 -11 7.5 -19t18.5 -8t19 8t8 19q0 20 -19 27l-55 98 q6 9 6 25q0 20 -11.5 33.5t-33.5 13.5q-23 0 -35 -13.5t-12 -33.5z" />
<glyph unicode="&#x201d;" horiz-adv-x="412" d="M12 1257q0 20 19 27l55 98q-6 9 -6 25q0 20 11.5 33.5t33.5 13.5q23 0 35 -13.5t12 -33.5q0 -19 -12 -32t-35 -13h-4l-56 -101v-4q0 -11 -7.5 -19t-18.5 -8t-19 8t-8 19zM198 1257q0 20 19 27l55 98q-6 9 -6 25q0 20 11.5 33.5t33.5 13.5q23 0 35 -13.5t12 -33.5 q0 -19 -12 -32t-35 -13h-4l-56 -101v-4q0 -11 -7.5 -19t-18.5 -8t-19 8t-8 19z" />
<glyph unicode="&#x201e;" horiz-adv-x="412" d="M12 -125q0 20 19 27l55 98q-6 9 -6 25q0 20 11.5 33.5t33.5 13.5q23 0 35 -13.5t12 -33.5q0 -19 -12 -32t-35 -13h-4l-56 -101v-4q0 -11 -7.5 -19t-18.5 -8t-19 8t-8 19zM198 -125q0 20 19 27l55 98q-6 9 -6 25q0 20 11.5 33.5t33.5 13.5q23 0 35 -13.5t12 -33.5 q0 -19 -12 -32t-35 -13h-4l-56 -101v-4q0 -11 -7.5 -19t-18.5 -8t-19 8t-8 19z" />
<glyph unicode="&#x2022;" horiz-adv-x="238" d="M72 840q0 20 11.5 33.5t33.5 13.5q23 0 35 -13.5t12 -33.5q0 -19 -12 -32t-35 -13q-22 0 -33.5 13t-11.5 32z" />
<glyph unicode="&#x202f;" horiz-adv-x="364" />
<glyph unicode="&#x2039;" horiz-adv-x="545" d="M45 502q0 9 7 16.5t18 9.5l340 338q0 10 7.5 17.5t18.5 7.5t19 -8t8 -19t-8 -18.5t-19 -7.5l-338 -336l340 -336q10 -2 17.5 -9.5t7.5 -17.5q0 -11 -8 -18.5t-19 -7.5t-18.5 7.5t-7.5 18.5l-338 336q-11 0 -19 8t-8 19z" />
<glyph unicode="&#x203a;" horiz-adv-x="547" d="M82 139q0 -11 8 -18.5t19 -7.5t18.5 7.5t7.5 18.5l338 336q11 0 19 8t8 19q0 9 -7 16.5t-18 9.5l-340 338q0 10 -7.5 17.5t-18.5 7.5t-19 -8t-8 -19t8 -18.5t19 -7.5l338 -336l-340 -336q-10 -2 -17.5 -9.5t-7.5 -17.5z" />
<glyph unicode="&#x205f;" horiz-adv-x="455" />
<glyph unicode="&#x20ac;" horiz-adv-x="702" d="M57 819q0 11 8 19t19 8q10 0 16 -6h97v143h-97q-6 -6 -16 -6q-11 0 -19 8t-8 19t8 18.5t19 7.5q10 0 16 -6h97v197q0 43 10.5 85t35 75t65.5 53t102 20q57 0 96.5 -18t64.5 -48t37.5 -68.5t14.5 -80.5q3 -3 4.5 -8t1.5 -10q0 -11 -8 -19t-19 -8t-18.5 8t-7.5 19 q0 10 6 16q-2 33 -11.5 64.5t-30 56.5t-52.5 40t-78 15q-49 0 -82 -17t-53 -44t-28.5 -61.5t-8.5 -69.5v-197h262q9 6 18 6q11 0 19 -7.5t8 -18.5t-8 -19t-19 -8q-9 0 -18 6h-262v-143h262q9 6 18 6q11 0 19 -8t8 -19t-8 -18.5t-19 -7.5q-9 0 -18 6h-262v-592 q0 -36 8.5 -69.5t28.5 -60t53 -42t82 -15.5q46 0 78 13.5t52.5 36.5t30 53.5t11.5 64.5q-3 4 -4.5 9t-1.5 10q0 11 7.5 18.5t18.5 7.5t19 -7.5t8 -18.5q0 -5 -1.5 -10t-4.5 -9q-2 -41 -14.5 -79t-37.5 -66.5t-64.5 -45.5t-96.5 -17q-61 0 -102 19t-65.5 50.5t-35 72.5 t-10.5 85v592h-97q-6 -6 -16 -6q-11 0 -19 7.5t-8 18.5z" />
<glyph unicode="&#xe000;" horiz-adv-x="1045" d="M0 0v1045h1045v-1045h-1045z" />
</font>
</defs>
</svg>
